<svg width="72" height="124" viewBox="0 0 72 124" fill="none" xmlns="http://www.w3.org/2000/svg">
<rect x="0.5" y="0.5" width="71" height="123" rx="4.5" stroke="#9747FF" stroke-dasharray="10 5"/>
<path d="M45.5156 31.125C46.4531 30.4219 47.2969 29.5781 47.9531 28.5938C47.1094 28.9688 46.125 29.25 45.1406 29.3438C46.1719 28.7344 46.9219 27.7969 47.2969 26.625C46.3594 27.1875 45.2812 27.6094 44.2031 27.8438C43.2656 26.8594 42 26.2969 40.5938 26.2969C37.875 26.2969 35.6719 28.5 35.6719 31.2188C35.6719 31.5938 35.7188 31.9688 35.8125 32.3438C31.7344 32.1094 28.0781 30.1406 25.6406 27.1875C25.2188 27.8906 24.9844 28.7344 24.9844 29.6719C24.9844 31.3594 25.8281 32.8594 27.1875 33.75C26.3906 33.7031 25.5938 33.5156 24.9375 33.1406V33.1875C24.9375 35.5781 26.625 37.5469 28.875 38.0156C28.5 38.1094 28.0312 38.2031 27.6094 38.2031C27.2812 38.2031 27 38.1562 26.6719 38.1094C27.2812 40.0781 29.1094 41.4844 31.2656 41.5312C29.5781 42.8438 27.4688 43.6406 25.1719 43.6406C24.75 43.6406 24.375 43.5938 24 43.5469C26.1562 44.9531 28.7344 45.75 31.5469 45.75C40.5938 45.75 45.5156 38.2969 45.5156 31.7812C45.5156 31.5469 45.5156 31.3594 45.5156 31.125Z" fill="#D0D0D0"/>
<path d="M45.5156 83.125C46.4531 82.4219 47.2969 81.5781 47.9531 80.5938C47.1094 80.9688 46.125 81.25 45.1406 81.3438C46.1719 80.7344 46.9219 79.7969 47.2969 78.625C46.3594 79.1875 45.2812 79.6094 44.2031 79.8438C43.2656 78.8594 42 78.2969 40.5938 78.2969C37.875 78.2969 35.6719 80.5 35.6719 83.2188C35.6719 83.5938 35.7188 83.9688 35.8125 84.3438C31.7344 84.1094 28.0781 82.1406 25.6406 79.1875C25.2188 79.8906 24.9844 80.7344 24.9844 81.6719C24.9844 83.3594 25.8281 84.8594 27.1875 85.75C26.3906 85.7031 25.5938 85.5156 24.9375 85.1406V85.1875C24.9375 87.5781 26.625 89.5469 28.875 90.0156C28.5 90.1094 28.0312 90.2031 27.6094 90.2031C27.2812 90.2031 27 90.1562 26.6719 90.1094C27.2812 92.0781 29.1094 93.4844 31.2656 93.5312C29.5781 94.8438 27.4688 95.6406 25.1719 95.6406C24.75 95.6406 24.375 95.5938 24 95.5469C26.1562 96.9531 28.7344 97.75 31.5469 97.75C40.5938 97.75 45.5156 90.2969 45.5156 83.7812C45.5156 83.5469 45.5156 83.3594 45.5156 83.125Z" fill="black"/>
</svg>
