<svg width="72" height="124" viewBox="0 0 72 124" fill="none" xmlns="http://www.w3.org/2000/svg">
<rect x="0.5" y="0.5" width="71" height="123" rx="4.5" stroke="#9747FF" stroke-dasharray="10 5"/>
<path d="M36 30.6094C33 30.6094 30.6094 33.0469 30.6094 36C30.6094 39 33 41.3906 36 41.3906C38.9531 41.3906 41.3906 39 41.3906 36C41.3906 33.0469 38.9531 30.6094 36 30.6094ZM36 39.5156C34.0781 39.5156 32.4844 37.9688 32.4844 36C32.4844 34.0781 34.0312 32.5312 36 32.5312C37.9219 32.5312 39.4688 34.0781 39.4688 36C39.4688 37.9688 37.9219 39.5156 36 39.5156ZM42.8438 30.4219C42.8438 29.7188 42.2812 29.1562 41.5781 29.1562C40.875 29.1562 40.3125 29.7188 40.3125 30.4219C40.3125 31.125 40.875 31.6875 41.5781 31.6875C42.2812 31.6875 42.8438 31.125 42.8438 30.4219ZM46.4062 31.6875C46.3125 30 45.9375 28.5 44.7188 27.2812C43.5 26.0625 42 25.6875 40.3125 25.5938C38.5781 25.5 33.375 25.5 31.6406 25.5938C29.9531 25.6875 28.5 26.0625 27.2344 27.2812C26.0156 28.5 25.6406 30 25.5469 31.6875C25.4531 33.4219 25.4531 38.625 25.5469 40.3594C25.6406 42.0469 26.0156 43.5 27.2344 44.7656C28.5 45.9844 29.9531 46.3594 31.6406 46.4531C33.375 46.5469 38.5781 46.5469 40.3125 46.4531C42 46.3594 43.5 45.9844 44.7188 44.7656C45.9375 43.5 46.3125 42.0469 46.4062 40.3594C46.5 38.625 46.5 33.4219 46.4062 31.6875ZM44.1562 42.1875C43.8281 43.125 43.0781 43.8281 42.1875 44.2031C40.7812 44.7656 37.5 44.625 36 44.625C34.4531 44.625 31.1719 44.7656 29.8125 44.2031C28.875 43.8281 28.1719 43.125 27.7969 42.1875C27.2344 40.8281 27.375 37.5469 27.375 36C27.375 34.5 27.2344 31.2188 27.7969 29.8125C28.1719 28.9219 28.875 28.2188 29.8125 27.8438C31.1719 27.2812 34.4531 27.4219 36 27.4219C37.5 27.4219 40.7812 27.2812 42.1875 27.8438C43.0781 28.1719 43.7812 28.9219 44.1562 29.8125C44.7188 31.2188 44.5781 34.5 44.5781 36C44.5781 37.5469 44.7188 40.8281 44.1562 42.1875Z" fill="#D0D0D0"/>
<path d="M36 82.6094C33 82.6094 30.6094 85.0469 30.6094 88C30.6094 91 33 93.3906 36 93.3906C38.9531 93.3906 41.3906 91 41.3906 88C41.3906 85.0469 38.9531 82.6094 36 82.6094ZM36 91.5156C34.0781 91.5156 32.4844 89.9688 32.4844 88C32.4844 86.0781 34.0312 84.5312 36 84.5312C37.9219 84.5312 39.4688 86.0781 39.4688 88C39.4688 89.9688 37.9219 91.5156 36 91.5156ZM42.8438 82.4219C42.8438 81.7188 42.2812 81.1562 41.5781 81.1562C40.875 81.1562 40.3125 81.7188 40.3125 82.4219C40.3125 83.125 40.875 83.6875 41.5781 83.6875C42.2812 83.6875 42.8438 83.125 42.8438 82.4219ZM46.4062 83.6875C46.3125 82 45.9375 80.5 44.7188 79.2812C43.5 78.0625 42 77.6875 40.3125 77.5938C38.5781 77.5 33.375 77.5 31.6406 77.5938C29.9531 77.6875 28.5 78.0625 27.2344 79.2812C26.0156 80.5 25.6406 82 25.5469 83.6875C25.4531 85.4219 25.4531 90.625 25.5469 92.3594C25.6406 94.0469 26.0156 95.5 27.2344 96.7656C28.5 97.9844 29.9531 98.3594 31.6406 98.4531C33.375 98.5469 38.5781 98.5469 40.3125 98.4531C42 98.3594 43.5 97.9844 44.7188 96.7656C45.9375 95.5 46.3125 94.0469 46.4062 92.3594C46.5 90.625 46.5 85.4219 46.4062 83.6875ZM44.1562 94.1875C43.8281 95.125 43.0781 95.8281 42.1875 96.2031C40.7812 96.7656 37.5 96.625 36 96.625C34.4531 96.625 31.1719 96.7656 29.8125 96.2031C28.875 95.8281 28.1719 95.125 27.7969 94.1875C27.2344 92.8281 27.375 89.5469 27.375 88C27.375 86.5 27.2344 83.2188 27.7969 81.8125C28.1719 80.9219 28.875 80.2188 29.8125 79.8438C31.1719 79.2812 34.4531 79.4219 36 79.4219C37.5 79.4219 40.7812 79.2812 42.1875 79.8438C43.0781 80.1719 43.7812 80.9219 44.1562 81.8125C44.7188 83.2188 44.5781 86.5 44.5781 88C44.5781 89.5469 44.7188 92.8281 44.1562 94.1875Z" fill="black"/>
</svg>
