<svg width="72" height="124" viewBox="0 0 72 124" fill="none" xmlns="http://www.w3.org/2000/svg">
<rect x="0.5" y="0.5" width="71" height="123" rx="4.5" stroke="#9747FF" stroke-dasharray="10 5"/>
<path d="M39 45H29V43H39V45ZM45 33.335L43.379 24L41.386 24.346L43.006 33.681L45 33.335ZM39.036 40.272L29.29 39.297L29.104 41.313L38.859 42.192L39.036 40.272ZM39.574 37.685L30.298 35.077L29.772 37.031L39.078 39.531L39.574 37.685ZM40.778 35.272L32.481 30.408L31.452 32.151L39.75 37.016L40.778 35.272ZM42.644 33.805L37.305 25.976L35.633 27.116L40.972 34.945L42.644 33.805ZM40 38V46H28V38H26V48H42V38H40Z" fill="#D0D0D0"/>
<path d="M39 97H29V95H39V97ZM45 85.335L43.379 76L41.386 76.346L43.006 85.681L45 85.335ZM39.036 92.272L29.29 91.297L29.104 93.313L38.859 94.192L39.036 92.272ZM39.574 89.685L30.298 87.077L29.772 89.031L39.078 91.531L39.574 89.685ZM40.778 87.272L32.481 82.408L31.452 84.151L39.75 89.016L40.778 87.272ZM42.644 85.805L37.305 77.976L35.633 79.116L40.972 86.945L42.644 85.805ZM40 90V98H28V90H26V100H42V90H40Z" fill="black"/>
</svg>
