<svg width="33" height="32" viewBox="0 0 33 32" fill="none" xmlns="http://www.w3.org/2000/svg">
<g id="Btn - instagram">
<path id="&#239;&#133;&#173;" d="M16.5 10.6094C13.5 10.6094 11.1094 13.0469 11.1094 16C11.1094 19 13.5 21.3906 16.5 21.3906C19.4531 21.3906 21.8906 19 21.8906 16C21.8906 13.0469 19.4531 10.6094 16.5 10.6094ZM16.5 19.5156C14.5781 19.5156 12.9844 17.9688 12.9844 16C12.9844 14.0781 14.5312 12.5312 16.5 12.5312C18.4219 12.5312 19.9688 14.0781 19.9688 16C19.9688 17.9688 18.4219 19.5156 16.5 19.5156ZM23.3438 10.4219C23.3438 9.71875 22.7812 9.15625 22.0781 9.15625C21.375 9.15625 20.8125 9.71875 20.8125 10.4219C20.8125 11.125 21.375 11.6875 22.0781 11.6875C22.7812 11.6875 23.3438 11.125 23.3438 10.4219ZM26.9062 11.6875C26.8125 10 26.4375 8.5 25.2188 7.28125C24 6.0625 22.5 5.6875 20.8125 5.59375C19.0781 5.5 13.875 5.5 12.1406 5.59375C10.4531 5.6875 9 6.0625 7.73438 7.28125C6.51562 8.5 6.14062 10 6.04688 11.6875C5.95312 13.4219 5.95312 18.625 6.04688 20.3594C6.14062 22.0469 6.51562 23.5 7.73438 24.7656C9 25.9844 10.4531 26.3594 12.1406 26.4531C13.875 26.5469 19.0781 26.5469 20.8125 26.4531C22.5 26.3594 24 25.9844 25.2188 24.7656C26.4375 23.5 26.8125 22.0469 26.9062 20.3594C27 18.625 27 13.4219 26.9062 11.6875ZM24.6562 22.1875C24.3281 23.125 23.5781 23.8281 22.6875 24.2031C21.2812 24.7656 18 24.625 16.5 24.625C14.9531 24.625 11.6719 24.7656 10.3125 24.2031C9.375 23.8281 8.67188 23.125 8.29688 22.1875C7.73438 20.8281 7.875 17.5469 7.875 16C7.875 14.5 7.73438 11.2188 8.29688 9.8125C8.67188 8.92188 9.375 8.21875 10.3125 7.84375C11.6719 7.28125 14.9531 7.42188 16.5 7.42188C18 7.42188 21.2812 7.28125 22.6875 7.84375C23.5781 8.17188 24.2812 8.92188 24.6562 9.8125C25.2188 11.2188 25.0781 14.5 25.0781 16C25.0781 17.5469 25.2188 20.8281 24.6562 22.1875Z" fill="#D0D0D0"/>
</g>
</svg>
