<svg width="288" height="32" viewBox="0 0 288 32" fill="none" xmlns="http://www.w3.org/2000/svg">
<path d="M10.1875 25V10.9844H5.82812V25H10.1875ZM7.98438 9.10938C9.39062 9.10938 10.5156 7.9375 10.5156 6.53125C10.5156 5.17188 9.39062 4.04688 7.98438 4.04688C6.625 4.04688 5.5 5.17188 5.5 6.53125C5.5 7.9375 6.625 9.10938 7.98438 9.10938ZM26.4531 25H26.5V17.3125C26.5 13.5625 25.6562 10.6562 21.25 10.6562C19.1406 10.6562 17.7344 11.8281 17.125 12.9062H17.0781V10.9844H12.9062V25H17.2656V18.0625C17.2656 16.2344 17.5938 14.5 19.8438 14.5C22.0938 14.5 22.1406 16.5625 22.1406 18.2031V25H26.4531Z" fill="black"/>
<path d="M76.1094 22.6562C76.1094 22.5625 76.0156 22.4688 75.875 22.4688C75.7344 22.4688 75.6406 22.5625 75.6406 22.6562C75.6406 22.75 75.7344 22.8438 75.875 22.7969C76.0156 22.7969 76.1094 22.75 76.1094 22.6562ZM74.6562 22.4219C74.6562 22.5156 74.75 22.6562 74.8906 22.6562C74.9844 22.7031 75.125 22.6562 75.1719 22.5625C75.1719 22.4688 75.125 22.375 74.9844 22.3281C74.8438 22.2812 74.7031 22.3281 74.6562 22.4219ZM76.7656 22.375C76.625 22.375 76.5312 22.4688 76.5312 22.6094C76.5312 22.7031 76.6719 22.75 76.8125 22.7031C76.9531 22.6562 77.0469 22.6094 77 22.5156C77 22.4219 76.8594 22.3281 76.7656 22.375ZM79.8125 4.375C73.3438 4.375 68.375 9.34375 68.375 15.8125C68.375 21.0156 71.6094 25.4688 76.2969 27.0625C76.9062 27.1562 77.0938 26.7812 77.0938 26.5C77.0938 26.1719 77.0938 24.5781 77.0938 23.5938C77.0938 23.5938 73.8125 24.2969 73.1094 22.1875C73.1094 22.1875 72.5938 20.8281 71.8438 20.5C71.8438 20.5 70.7656 19.75 71.8906 19.75C71.8906 19.75 73.0625 19.8438 73.7188 20.9688C74.75 22.7969 76.4375 22.2812 77.1406 21.9531C77.2344 21.2031 77.5156 20.6875 77.8906 20.3594C75.2656 20.0781 72.5938 19.7031 72.5938 15.2031C72.5938 13.8906 72.9688 13.2812 73.7188 12.4375C73.5781 12.1094 73.2031 10.8906 73.8594 9.25C74.7969 8.96875 77.0938 10.5156 77.0938 10.5156C78.0312 10.2344 79.0156 10.1406 80 10.1406C81.0312 10.1406 82.0156 10.2344 82.9531 10.5156C82.9531 10.5156 85.2031 8.92188 86.1875 9.25C86.8438 10.8906 86.4219 12.1094 86.3281 12.4375C87.0781 13.2812 87.5469 13.8906 87.5469 15.2031C87.5469 19.7031 84.7812 20.0781 82.1562 20.3594C82.5781 20.7344 82.9531 21.4375 82.9531 22.5625C82.9531 24.1094 82.9062 26.0781 82.9062 26.4531C82.9062 26.7812 83.1406 27.1562 83.75 27.0156C88.4375 25.4688 91.625 21.0156 91.625 15.8125C91.625 9.34375 86.3281 4.375 79.8125 4.375ZM72.9219 20.5469C72.8281 20.5938 72.875 20.7344 72.9219 20.8281C73.0156 20.875 73.1094 20.9219 73.2031 20.875C73.25 20.8281 73.25 20.6875 73.1562 20.5938C73.0625 20.5469 72.9688 20.5 72.9219 20.5469ZM72.4062 20.1719C72.3594 20.2656 72.4062 20.3125 72.5 20.3594C72.5938 20.4062 72.6875 20.4062 72.7344 20.3125C72.7344 20.2656 72.6875 20.2188 72.5938 20.1719C72.5 20.125 72.4531 20.125 72.4062 20.1719ZM73.9062 21.8594C73.8594 21.9062 73.8594 22.0469 74 22.1406C74.0938 22.2344 74.2344 22.2812 74.2812 22.1875C74.3281 22.1406 74.3281 22 74.2344 21.9062C74.1406 21.8125 74 21.7656 73.9062 21.8594ZM73.3906 21.1562C73.2969 21.2031 73.2969 21.3438 73.3906 21.4375C73.4844 21.5312 73.5781 21.5781 73.6719 21.5312C73.7188 21.4844 73.7188 21.3438 73.6719 21.25C73.5781 21.1562 73.4844 21.1094 73.3906 21.1562Z" fill="black"/>
<path d="M147 25H137V23H147V25ZM153 13.335L151.379 4L149.386 4.346L151.006 13.681L153 13.335ZM147.036 20.272L137.29 19.297L137.104 21.313L146.859 22.192L147.036 20.272ZM147.574 17.685L138.298 15.077L137.772 17.031L147.078 19.531L147.574 17.685ZM148.778 15.272L140.481 10.408L139.452 12.151L147.75 17.016L148.778 15.272ZM150.644 13.805L145.305 5.976L143.633 7.116L148.972 14.945L150.644 13.805ZM148 18V26H136V18H134V28H150V18H148Z" fill="black"/>
<path d="M217.516 11.125C218.453 10.4219 219.297 9.57812 219.953 8.59375C219.109 8.96875 218.125 9.25 217.141 9.34375C218.172 8.73438 218.922 7.79688 219.297 6.625C218.359 7.1875 217.281 7.60938 216.203 7.84375C215.266 6.85938 214 6.29688 212.594 6.29688C209.875 6.29688 207.672 8.5 207.672 11.2188C207.672 11.5938 207.719 11.9688 207.812 12.3438C203.734 12.1094 200.078 10.1406 197.641 7.1875C197.219 7.89062 196.984 8.73438 196.984 9.67188C196.984 11.3594 197.828 12.8594 199.188 13.75C198.391 13.7031 197.594 13.5156 196.938 13.1406V13.1875C196.938 15.5781 198.625 17.5469 200.875 18.0156C200.5 18.1094 200.031 18.2031 199.609 18.2031C199.281 18.2031 199 18.1562 198.672 18.1094C199.281 20.0781 201.109 21.4844 203.266 21.5312C201.578 22.8438 199.469 23.6406 197.172 23.6406C196.75 23.6406 196.375 23.5938 196 23.5469C198.156 24.9531 200.734 25.75 203.547 25.75C212.594 25.75 217.516 18.2969 217.516 11.7812C217.516 11.5469 217.516 11.3594 217.516 11.125Z" fill="black"/>
<path d="M272 10.6094C269 10.6094 266.609 13.0469 266.609 16C266.609 19 269 21.3906 272 21.3906C274.953 21.3906 277.391 19 277.391 16C277.391 13.0469 274.953 10.6094 272 10.6094ZM272 19.5156C270.078 19.5156 268.484 17.9688 268.484 16C268.484 14.0781 270.031 12.5312 272 12.5312C273.922 12.5312 275.469 14.0781 275.469 16C275.469 17.9688 273.922 19.5156 272 19.5156ZM278.844 10.4219C278.844 9.71875 278.281 9.15625 277.578 9.15625C276.875 9.15625 276.312 9.71875 276.312 10.4219C276.312 11.125 276.875 11.6875 277.578 11.6875C278.281 11.6875 278.844 11.125 278.844 10.4219ZM282.406 11.6875C282.312 10 281.938 8.5 280.719 7.28125C279.5 6.0625 278 5.6875 276.312 5.59375C274.578 5.5 269.375 5.5 267.641 5.59375C265.953 5.6875 264.5 6.0625 263.234 7.28125C262.016 8.5 261.641 10 261.547 11.6875C261.453 13.4219 261.453 18.625 261.547 20.3594C261.641 22.0469 262.016 23.5 263.234 24.7656C264.5 25.9844 265.953 26.3594 267.641 26.4531C269.375 26.5469 274.578 26.5469 276.312 26.4531C278 26.3594 279.5 25.9844 280.719 24.7656C281.938 23.5 282.312 22.0469 282.406 20.3594C282.5 18.625 282.5 13.4219 282.406 11.6875ZM280.156 22.1875C279.828 23.125 279.078 23.8281 278.188 24.2031C276.781 24.7656 273.5 24.625 272 24.625C270.453 24.625 267.172 24.7656 265.812 24.2031C264.875 23.8281 264.172 23.125 263.797 22.1875C263.234 20.8281 263.375 17.5469 263.375 16C263.375 14.5 263.234 11.2188 263.797 9.8125C264.172 8.92188 264.875 8.21875 265.812 7.84375C267.172 7.28125 270.453 7.42188 272 7.42188C273.5 7.42188 276.781 7.28125 278.188 7.84375C279.078 8.17188 279.781 8.92188 280.156 9.8125C280.719 11.2188 280.578 14.5 280.578 16C280.578 17.5469 280.719 20.8281 280.156 22.1875Z" fill="black"/>
</svg>
