<svg width="33" height="32" viewBox="0 0 33 32" fill="none" xmlns="http://www.w3.org/2000/svg">
<g id="Btn - stackoverflow">
<path id="StackOverflow" d="M19.5 25H9.5V23H19.5V25ZM25.5 13.335L23.879 4L21.886 4.346L23.506 13.681L25.5 13.335ZM19.536 20.272L9.79 19.297L9.604 21.313L19.359 22.192L19.536 20.272ZM20.074 17.685L10.798 15.077L10.272 17.031L19.578 19.531L20.074 17.685ZM21.278 15.272L12.981 10.408L11.952 12.151L20.25 17.016L21.278 15.272ZM23.144 13.805L17.805 5.976L16.133 7.116L21.472 14.945L23.144 13.805ZM20.5 18V26H8.5V18H6.5V28H22.5V18H20.5Z" fill="#D0D0D0"/>
</g>
</svg>
