<svg width="1512" height="114" viewBox="0 0 1512 114" fill="none" xmlns="http://www.w3.org/2000/svg">
<rect width="1512" height="114" fill="#FF4575"/>
<path d="M21.0979 69.2604C19.6918 69.2604 18.3292 69.0608 17.0099 68.6615C15.708 68.2622 14.6751 67.7328 13.9113 67.0732L15.0831 64.4433C15.8295 65.0335 16.7408 65.5195 17.8171 65.9014C18.9107 66.266 20.0043 66.4482 21.0979 66.4482C22.4519 66.4482 23.4587 66.2313 24.1184 65.7973C24.7954 65.3633 25.1339 64.7905 25.1339 64.0788C25.1339 63.558 24.9429 63.1327 24.561 62.8029C24.1965 62.4557 23.7278 62.1866 23.1549 61.9957C22.5821 61.8047 21.8009 61.5878 20.8115 61.3447C19.4228 61.0149 18.2945 60.6851 17.4265 60.3553C16.5759 60.0255 15.8382 59.5134 15.2133 58.819C14.6057 58.1073 14.3019 57.1526 14.3019 55.9548C14.3019 54.948 14.571 54.0367 15.1091 53.2208C15.6646 52.3876 16.4891 51.7279 17.5827 51.2419C18.6937 50.7558 20.0477 50.5128 21.6447 50.5128C22.7557 50.5128 23.8493 50.6517 24.9255 50.9294C26.0018 51.2072 26.9305 51.6064 27.7116 52.1272L26.6441 54.757C25.8456 54.2884 25.0123 53.9325 24.1444 53.6895C23.2765 53.4465 22.4345 53.3249 21.6187 53.3249C20.282 53.3249 19.2839 53.5506 18.6243 54.0019C17.982 54.4533 17.6609 55.0521 17.6609 55.7986C17.6609 56.3193 17.8431 56.7446 18.2077 57.0745C18.5896 57.4043 19.0669 57.6647 19.6398 57.8556C20.2126 58.0466 20.9938 58.2635 21.9832 58.5066C23.3372 58.819 24.4482 59.1488 25.3161 59.496C26.1841 59.8258 26.9218 60.3379 27.5294 61.0323C28.1543 61.7266 28.4668 62.664 28.4668 63.8444C28.4668 64.8512 28.189 65.7626 27.6335 66.5784C27.0954 67.3943 26.2709 68.0453 25.1599 68.5313C24.0489 69.0174 22.6949 69.2604 21.0979 69.2604ZM36.8226 54.9393C38.871 54.9393 40.4333 55.434 41.5095 56.4235C42.6031 57.3956 43.1499 58.8711 43.1499 60.85V69H40.0774V67.3075C39.6781 67.9151 39.1053 68.3838 38.3589 68.7136C37.6298 69.026 36.7445 69.1823 35.703 69.1823C34.6614 69.1823 33.7501 69.0087 32.9689 68.6615C32.1878 68.297 31.5802 67.8022 31.1463 67.1773C30.7296 66.535 30.5213 65.8146 30.5213 65.0161C30.5213 63.7663 30.9813 62.7682 31.9014 62.0217C32.8387 61.2579 34.3056 60.876 36.3018 60.876H39.8951V60.6677C39.8951 59.6956 39.6 58.9492 39.0098 58.4284C38.437 57.9077 37.5777 57.6473 36.432 57.6473C35.6509 57.6473 34.8784 57.7688 34.1146 58.0118C33.3682 58.2549 32.7346 58.5934 32.2138 59.0273L30.938 56.6578C31.667 56.1024 32.5436 55.6771 33.5678 55.382C34.592 55.0869 35.6769 54.9393 36.8226 54.9393ZM36.38 66.8128C37.1958 66.8128 37.9162 66.6305 38.5411 66.266C39.1834 65.8841 39.6347 65.346 39.8951 64.6516V63.0372H36.5362C34.6614 63.0372 33.7241 63.6535 33.7241 64.8859C33.7241 65.4761 33.9584 65.9448 34.4271 66.292C34.8958 66.6392 35.5467 66.8128 36.38 66.8128ZM50.4256 57.1265C51.363 55.6684 53.0121 54.9393 55.3729 54.9393V58.0379C55.0951 57.9858 54.8434 57.9598 54.6178 57.9598C53.3506 57.9598 52.3611 58.333 51.6494 59.0794C50.9377 59.8085 50.5818 60.8674 50.5818 62.2561V69H47.327V55.0955H50.4256V57.1265ZM63.3695 54.9393C65.4178 54.9393 66.9801 55.434 68.0564 56.4235C69.15 57.3956 69.6968 58.8711 69.6968 60.85V69H66.6243V67.3075C66.225 67.9151 65.6522 68.3838 64.9057 68.7136C64.1767 69.026 63.2914 69.1823 62.2498 69.1823C61.2083 69.1823 60.297 69.0087 59.5158 68.6615C58.7347 68.297 58.1271 67.8022 57.6931 67.1773C57.2765 66.535 57.0682 65.8146 57.0682 65.0161C57.0682 63.7663 57.5282 62.7682 58.4482 62.0217C59.3856 61.2579 60.8524 60.876 62.8487 60.876H66.442V60.6677C66.442 59.6956 66.1469 58.9492 65.5567 58.4284C64.9839 57.9077 64.1246 57.6473 62.9789 57.6473C62.1978 57.6473 61.4253 57.7688 60.6615 58.0118C59.9151 58.2549 59.2815 58.5934 58.7607 59.0273L57.4848 56.6578C58.2139 56.1024 59.0905 55.6771 60.1147 55.382C61.1389 55.0869 62.2238 54.9393 63.3695 54.9393ZM62.9268 66.8128C63.7427 66.8128 64.4631 66.6305 65.088 66.266C65.7303 65.8841 66.1816 65.346 66.442 64.6516V63.0372H63.0831C61.2083 63.0372 60.2709 63.6535 60.2709 64.8859C60.2709 65.4761 60.5053 65.9448 60.974 66.292C61.4426 66.6392 62.0936 66.8128 62.9268 66.8128ZM87.0328 69.2604C85.6267 69.2604 84.2641 69.0608 82.9448 68.6615C81.6429 68.2622 80.61 67.7328 79.8462 67.0732L81.018 64.4433C81.7644 65.0335 82.6757 65.5195 83.752 65.9014C84.8456 66.266 85.9392 66.4482 87.0328 66.4482C88.3868 66.4482 89.3936 66.2313 90.0532 65.7973C90.7302 65.3633 91.0687 64.7905 91.0687 64.0788C91.0687 63.558 90.8778 63.1327 90.4959 62.8029C90.1314 62.4557 89.6627 62.1866 89.0898 61.9957C88.517 61.8047 87.7358 61.5878 86.7464 61.3447C85.3577 61.0149 84.2293 60.6851 83.3614 60.3553C82.5108 60.0255 81.7731 59.5134 81.1481 58.819C80.5406 58.1073 80.2368 57.1526 80.2368 55.9548C80.2368 54.948 80.5059 54.0367 81.044 53.2208C81.5995 52.3876 82.424 51.7279 83.5176 51.2419C84.6286 50.7558 85.9826 50.5128 87.5796 50.5128C88.6906 50.5128 89.7842 50.6517 90.8604 50.9294C91.9367 51.2072 92.8654 51.6064 93.6465 52.1272L92.579 54.757C91.7805 54.2884 90.9472 53.9325 90.0793 53.6895C89.2113 53.4465 88.3694 53.3249 87.5536 53.3249C86.2169 53.3249 85.2188 53.5506 84.5592 54.0019C83.9169 54.4533 83.5957 55.0521 83.5957 55.7986C83.5957 56.3193 83.778 56.7446 84.1426 57.0745C84.5244 57.4043 85.0018 57.6647 85.5747 57.8556C86.1475 58.0466 86.9287 58.2635 87.9181 58.5066C89.2721 58.819 90.3831 59.1488 91.251 59.496C92.119 59.8258 92.8567 60.3379 93.4643 61.0323C94.0892 61.7266 94.4016 62.664 94.4016 63.8444C94.4016 64.8512 94.1239 65.7626 93.5684 66.5784C93.0303 67.3943 92.2057 68.0453 91.0948 68.5313C89.9838 69.0174 88.6298 69.2604 87.0328 69.2604ZM110.211 55.0955L104.248 69H100.889L94.9261 55.0955H98.3111L102.633 65.4067L107.086 55.0955H110.211ZM124.935 62.1259C124.935 62.3516 124.917 62.6727 124.883 63.0893H113.972C114.163 64.1135 114.658 64.9293 115.457 65.5369C116.273 66.1271 117.279 66.4222 118.477 66.4222C120.005 66.4222 121.263 65.9188 122.253 64.912L123.997 66.9169C123.372 67.6634 122.582 68.2275 121.628 68.6094C120.673 68.9913 119.597 69.1823 118.399 69.1823C116.871 69.1823 115.526 68.8785 114.363 68.2709C113.2 67.6634 112.297 66.8215 111.655 65.7452C111.03 64.6516 110.718 63.4191 110.718 62.0478C110.718 60.6938 111.021 59.4787 111.629 58.4024C112.254 57.3088 113.113 56.4582 114.207 55.8507C115.3 55.2431 116.533 54.9393 117.904 54.9393C119.258 54.9393 120.465 55.2431 121.524 55.8507C122.6 56.4409 123.433 57.2828 124.023 58.3764C124.631 59.4526 124.935 60.7025 124.935 62.1259ZM117.904 57.5431C116.863 57.5431 115.977 57.8556 115.248 58.4805C114.537 59.0881 114.103 59.904 113.946 60.9281H121.836C121.697 59.9213 121.272 59.1054 120.56 58.4805C119.848 57.8556 118.963 57.5431 117.904 57.5431ZM135.951 54.9393C137.704 54.9393 139.11 55.4514 140.169 56.4756C141.228 57.4997 141.757 59.0186 141.757 61.0323V69H138.502V61.4489C138.502 60.2338 138.216 59.3224 137.643 58.7149C137.07 58.0899 136.254 57.7775 135.196 57.7775C133.998 57.7775 133.052 58.142 132.357 58.8711C131.663 59.5828 131.316 60.6157 131.316 61.9697V69H128.061V55.0955H131.16V56.8922C131.698 56.2499 132.375 55.7639 133.191 55.434C134.006 55.1042 134.926 54.9393 135.951 54.9393ZM150.182 69.1823C149.054 69.1823 147.952 69.0347 146.876 68.7396C145.799 68.4445 144.94 68.0713 144.298 67.62L145.548 65.1463C146.173 65.5629 146.919 65.9014 147.787 66.1618C148.672 66.4048 149.54 66.5264 150.391 66.5264C152.335 66.5264 153.307 66.0143 153.307 64.9901C153.307 64.5041 153.055 64.1656 152.552 63.9746C152.066 63.7837 151.276 63.6014 150.182 63.4278C149.037 63.2542 148.099 63.0546 147.37 62.8289C146.659 62.6033 146.034 62.2127 145.496 61.6572C144.975 61.0844 144.714 60.2945 144.714 59.2877C144.714 57.9684 145.261 56.9182 146.355 56.1371C147.466 55.3386 148.959 54.9393 150.833 54.9393C151.788 54.9393 152.743 55.0521 153.698 55.2778C154.652 55.4861 155.433 55.7725 156.041 56.1371L154.791 58.6107C153.611 57.9164 152.283 57.5692 150.807 57.5692C149.853 57.5692 149.124 57.7167 148.62 58.0118C148.134 58.2896 147.891 58.6628 147.891 59.1315C147.891 59.6522 148.151 60.0255 148.672 60.2511C149.21 60.4594 150.035 60.6591 151.146 60.85C152.257 61.0236 153.168 61.2232 153.88 61.4489C154.592 61.6746 155.199 62.0565 155.703 62.5946C156.223 63.1327 156.484 63.8965 156.484 64.8859C156.484 66.1879 155.92 67.2294 154.791 68.0105C153.663 68.7917 152.127 69.1823 150.182 69.1823ZM163.583 69.1823C162.455 69.1823 161.352 69.0347 160.276 68.7396C159.2 68.4445 158.341 68.0713 157.698 67.62L158.948 65.1463C159.573 65.5629 160.32 65.9014 161.187 66.1618C162.073 66.4048 162.941 66.5264 163.791 66.5264C165.735 66.5264 166.708 66.0143 166.708 64.9901C166.708 64.5041 166.456 64.1656 165.952 63.9746C165.466 63.7837 164.677 63.6014 163.583 63.4278C162.437 63.2542 161.5 63.0546 160.771 62.8289C160.059 62.6033 159.434 62.2127 158.896 61.6572C158.375 61.0844 158.115 60.2945 158.115 59.2877C158.115 57.9684 158.662 56.9182 159.755 56.1371C160.866 55.3386 162.359 54.9393 164.234 54.9393C165.189 54.9393 166.143 55.0521 167.098 55.2778C168.053 55.4861 168.834 55.7725 169.442 56.1371L168.192 58.6107C167.011 57.9164 165.683 57.5692 164.208 57.5692C163.253 57.5692 162.524 57.7167 162.021 58.0118C161.535 58.2896 161.292 58.6628 161.292 59.1315C161.292 59.6522 161.552 60.0255 162.073 60.2511C162.611 60.4594 163.435 60.6591 164.546 60.85C165.657 61.0236 166.569 61.2232 167.28 61.4489C167.992 61.6746 168.6 62.0565 169.103 62.5946C169.624 63.1327 169.884 63.8965 169.884 64.8859C169.884 66.1879 169.32 67.2294 168.192 68.0105C167.063 68.7917 165.527 69.1823 163.583 69.1823ZM178.936 69.1823C177.53 69.1823 176.263 68.8785 175.135 68.2709C174.007 67.6634 173.121 66.8215 172.479 65.7452C171.854 64.6516 171.542 63.4191 171.542 62.0478C171.542 60.6764 171.854 59.4526 172.479 58.3764C173.121 57.3001 174.007 56.4582 175.135 55.8507C176.263 55.2431 177.53 54.9393 178.936 54.9393C180.36 54.9393 181.636 55.2431 182.764 55.8507C183.892 56.4582 184.769 57.3001 185.394 58.3764C186.036 59.4526 186.357 60.6764 186.357 62.0478C186.357 63.4191 186.036 64.6516 185.394 65.7452C184.769 66.8215 183.892 67.6634 182.764 68.2709C181.636 68.8785 180.36 69.1823 178.936 69.1823ZM178.936 66.3962C180.134 66.3962 181.124 65.9969 181.905 65.1984C182.686 64.3999 183.077 63.3497 183.077 62.0478C183.077 60.7459 182.686 59.6956 181.905 58.8971C181.124 58.0986 180.134 57.6994 178.936 57.6994C177.739 57.6994 176.749 58.0986 175.968 58.8971C175.204 59.6956 174.822 60.7459 174.822 62.0478C174.822 63.3497 175.204 64.3999 175.968 65.1984C176.749 65.9969 177.739 66.3962 178.936 66.3962ZM197.359 54.9393C199.113 54.9393 200.519 55.4514 201.578 56.4756C202.636 57.4997 203.166 59.0186 203.166 61.0323V69H199.911V61.4489C199.911 60.2338 199.625 59.3224 199.052 58.7149C198.479 58.0899 197.663 57.7775 196.604 57.7775C195.406 57.7775 194.46 58.142 193.766 58.8711C193.072 59.5828 192.725 60.6157 192.725 61.9697V69H189.47V55.0955H192.568V56.8922C193.106 56.2499 193.783 55.7639 194.599 55.434C195.415 55.1042 196.335 54.9393 197.359 54.9393ZM216.053 63.9225C215.446 63.9225 214.934 63.7229 214.517 63.3236C214.118 62.9244 213.918 62.3949 213.918 61.7353C213.918 61.1104 214.118 60.5983 214.517 60.1991C214.934 59.7824 215.446 59.5741 216.053 59.5741C216.678 59.5741 217.19 59.7738 217.589 60.173C217.989 60.5723 218.188 61.093 218.188 61.7353C218.188 62.3949 217.989 62.9244 217.589 63.3236C217.19 63.7229 216.678 63.9225 216.053 63.9225ZM232.784 53.6114V59.1575H241.585V62.0217H232.784V69H229.399V50.7732H242.705V53.6114H232.784ZM258.746 55.0955V69H255.648V67.2294C255.127 67.8543 254.476 68.3404 253.695 68.6875C252.914 69.0174 252.072 69.1823 251.169 69.1823C249.312 69.1823 247.845 68.6702 246.768 67.646C245.71 66.6045 245.18 65.0682 245.18 63.0372V55.0955H248.435V62.5946C248.435 63.8444 248.713 64.7818 249.268 65.4067C249.841 66.0143 250.648 66.3181 251.69 66.3181C252.853 66.3181 253.773 65.9622 254.45 65.2505C255.144 64.5214 255.491 63.4799 255.491 62.1259V55.0955H258.746ZM263.008 49.6796H266.262V69H263.008V49.6796ZM270.534 49.6796H273.789V69H270.534V49.6796ZM282.357 69.1823C281.229 69.1823 280.127 69.0347 279.05 68.7396C277.974 68.4445 277.115 68.0713 276.473 67.62L277.723 65.1463C278.347 65.5629 279.094 65.9014 279.962 66.1618C280.847 66.4048 281.715 66.5264 282.566 66.5264C284.51 66.5264 285.482 66.0143 285.482 64.9901C285.482 64.5041 285.23 64.1656 284.727 63.9746C284.241 63.7837 283.451 63.6014 282.357 63.4278C281.212 63.2542 280.274 63.0546 279.545 62.8289C278.833 62.6033 278.209 62.2127 277.67 61.6572C277.15 61.0844 276.889 60.2945 276.889 59.2877C276.889 57.9684 277.436 56.9182 278.53 56.1371C279.641 55.3386 281.134 54.9393 283.008 54.9393C283.963 54.9393 284.918 55.0521 285.873 55.2778C286.827 55.4861 287.608 55.7725 288.216 56.1371L286.966 58.6107C285.786 57.9164 284.458 57.5692 282.982 57.5692C282.028 57.5692 281.298 57.7167 280.795 58.0118C280.309 58.2896 280.066 58.6628 280.066 59.1315C280.066 59.6522 280.326 60.0255 280.847 60.2511C281.385 60.4594 282.21 60.6591 283.321 60.85C284.432 61.0236 285.343 61.2232 286.055 61.4489C286.766 61.6746 287.374 62.0565 287.877 62.5946C288.398 63.1327 288.659 63.8965 288.659 64.8859C288.659 66.1879 288.094 67.2294 286.966 68.0105C285.838 68.7917 284.302 69.1823 282.357 69.1823ZM299.82 68.2449C299.438 68.5573 298.969 68.7917 298.414 68.9479C297.876 69.1042 297.303 69.1823 296.695 69.1823C295.168 69.1823 293.987 68.783 293.154 67.9845C292.321 67.186 291.904 66.023 291.904 64.4954V57.8035H289.613V55.1997H291.904V52.023H295.159V55.1997H298.883V57.8035H295.159V64.4173C295.159 65.0943 295.324 65.615 295.654 65.9796C295.984 66.3267 296.461 66.5003 297.086 66.5003C297.815 66.5003 298.422 66.3094 298.909 65.9275L299.82 68.2449ZM307.809 54.9393C309.858 54.9393 311.42 55.434 312.496 56.4235C313.59 57.3956 314.136 58.8711 314.136 60.85V69H311.064V67.3075C310.665 67.9151 310.092 68.3838 309.345 68.7136C308.616 69.026 307.731 69.1823 306.69 69.1823C305.648 69.1823 304.737 69.0087 303.955 68.6615C303.174 68.297 302.567 67.8022 302.133 67.1773C301.716 66.535 301.508 65.8146 301.508 65.0161C301.508 63.7663 301.968 62.7682 302.888 62.0217C303.825 61.2579 305.292 60.876 307.288 60.876H310.882V60.6677C310.882 59.6956 310.587 58.9492 309.996 58.4284C309.424 57.9077 308.564 57.6473 307.419 57.6473C306.637 57.6473 305.865 57.7688 305.101 58.0118C304.355 58.2549 303.721 58.5934 303.2 59.0273L301.925 56.6578C302.654 56.1024 303.53 55.6771 304.554 55.382C305.579 55.0869 306.663 54.9393 307.809 54.9393ZM307.367 66.8128C308.182 66.8128 308.903 66.6305 309.528 66.266C310.17 65.8841 310.621 65.346 310.882 64.6516V63.0372H307.523C305.648 63.0372 304.711 63.6535 304.711 64.8859C304.711 65.4761 304.945 65.9448 305.414 66.292C305.882 66.6392 306.533 66.8128 307.367 66.8128ZM324.82 69.1823C323.379 69.1823 322.086 68.8785 320.94 68.2709C319.795 67.6634 318.901 66.8215 318.258 65.7452C317.616 64.6516 317.295 63.4191 317.295 62.0478C317.295 60.6764 317.616 59.4526 318.258 58.3764C318.901 57.3001 319.786 56.4582 320.914 55.8507C322.06 55.2431 323.362 54.9393 324.82 54.9393C326.191 54.9393 327.389 55.2171 328.413 55.7725C329.455 56.328 330.236 57.1265 330.757 58.1681L328.257 59.6262C327.858 58.9839 327.355 58.5066 326.747 58.1941C326.157 57.8643 325.506 57.6994 324.794 57.6994C323.579 57.6994 322.572 58.0986 321.774 58.8971C320.975 59.6783 320.576 60.7285 320.576 62.0478C320.576 63.367 320.966 64.4259 321.748 65.2244C322.546 66.0056 323.562 66.3962 324.794 66.3962C325.506 66.3962 326.157 66.2399 326.747 65.9275C327.355 65.5977 327.858 65.1116 328.257 64.4693L330.757 65.9275C330.219 66.969 329.429 67.7762 328.387 68.349C327.363 68.9045 326.174 69.1823 324.82 69.1823ZM339.12 63.0372L336.698 65.3286V69H333.443V49.6796H336.698V61.3447L343.442 55.0955H347.348L341.541 60.9281L347.895 69H343.937L339.12 63.0372ZM357.506 50.7732H365.473C367.417 50.7732 369.145 51.1551 370.655 51.9189C372.165 52.6653 373.337 53.7329 374.17 55.1216C375.003 56.4929 375.42 58.0813 375.42 59.8866C375.42 61.6919 375.003 63.2889 374.17 64.6776C373.337 66.049 372.165 67.1166 370.655 67.8804C369.145 68.6268 367.417 69 365.473 69H357.506V50.7732ZM365.317 66.1358C366.654 66.1358 367.825 65.8841 368.832 65.3807C369.856 64.8599 370.638 64.1308 371.176 63.1935C371.731 62.2387 372.009 61.1364 372.009 59.8866C372.009 58.6368 371.731 57.5431 371.176 56.6058C370.638 55.651 369.856 54.922 368.832 54.4185C367.825 53.8978 366.654 53.6374 365.317 53.6374H360.891V66.1358H365.317ZM391.776 62.1259C391.776 62.3516 391.759 62.6727 391.724 63.0893H380.814C381.005 64.1135 381.5 64.9293 382.298 65.5369C383.114 66.1271 384.121 66.4222 385.319 66.4222C386.846 66.4222 388.105 65.9188 389.094 64.912L390.839 66.9169C390.214 67.6634 389.424 68.2275 388.47 68.6094C387.515 68.9913 386.439 69.1823 385.241 69.1823C383.713 69.1823 382.368 68.8785 381.205 68.2709C380.042 67.6634 379.139 66.8215 378.497 65.7452C377.872 64.6516 377.559 63.4191 377.559 62.0478C377.559 60.6938 377.863 59.4787 378.471 58.4024C379.096 57.3088 379.955 56.4582 381.049 55.8507C382.142 55.2431 383.375 54.9393 384.746 54.9393C386.1 54.9393 387.307 55.2431 388.365 55.8507C389.442 56.4409 390.275 57.2828 390.865 58.3764C391.473 59.4526 391.776 60.7025 391.776 62.1259ZM384.746 57.5431C383.705 57.5431 382.819 57.8556 382.09 58.4805C381.378 59.0881 380.944 59.904 380.788 60.9281H388.678C388.539 59.9213 388.114 59.1054 387.402 58.4805C386.69 57.8556 385.805 57.5431 384.746 57.5431ZM407.668 55.0955L401.705 69H398.346L392.383 55.0955H395.768L400.091 65.4067L404.543 55.0955H407.668ZM422.392 62.1259C422.392 62.3516 422.374 62.6727 422.34 63.0893H411.43C411.621 64.1135 412.115 64.9293 412.914 65.5369C413.73 66.1271 414.737 66.4222 415.934 66.4222C417.462 66.4222 418.72 65.9188 419.71 64.912L421.454 66.9169C420.829 67.6634 420.04 68.2275 419.085 68.6094C418.13 68.9913 417.054 69.1823 415.856 69.1823C414.329 69.1823 412.983 68.8785 411.82 68.2709C410.657 67.6634 409.755 66.8215 409.112 65.7452C408.487 64.6516 408.175 63.4191 408.175 62.0478C408.175 60.6938 408.479 59.4787 409.086 58.4024C409.711 57.3088 410.57 56.4582 411.664 55.8507C412.758 55.2431 413.99 54.9393 415.361 54.9393C416.715 54.9393 417.922 55.2431 418.981 55.8507C420.057 56.4409 420.89 57.2828 421.48 58.3764C422.088 59.4526 422.392 60.7025 422.392 62.1259ZM415.361 57.5431C414.32 57.5431 413.435 57.8556 412.706 58.4805C411.994 59.0881 411.56 59.904 411.404 60.9281H419.293C419.154 59.9213 418.729 59.1054 418.017 58.4805C417.306 57.8556 416.42 57.5431 415.361 57.5431ZM425.518 49.6796H428.773V69H425.518V49.6796ZM439.294 69.1823C437.888 69.1823 436.621 68.8785 435.493 68.2709C434.364 67.6634 433.479 66.8215 432.837 65.7452C432.212 64.6516 431.899 63.4191 431.899 62.0478C431.899 60.6764 432.212 59.4526 432.837 58.3764C433.479 57.3001 434.364 56.4582 435.493 55.8507C436.621 55.2431 437.888 54.9393 439.294 54.9393C440.718 54.9393 441.993 55.2431 443.122 55.8507C444.25 56.4582 445.127 57.3001 445.752 58.3764C446.394 59.4526 446.715 60.6764 446.715 62.0478C446.715 63.4191 446.394 64.6516 445.752 65.7452C445.127 66.8215 444.25 67.6634 443.122 68.2709C441.993 68.8785 440.718 69.1823 439.294 69.1823ZM439.294 66.3962C440.492 66.3962 441.481 65.9969 442.262 65.1984C443.044 64.3999 443.434 63.3497 443.434 62.0478C443.434 60.7459 443.044 59.6956 442.262 58.8971C441.481 58.0986 440.492 57.6994 439.294 57.6994C438.096 57.6994 437.107 58.0986 436.326 58.8971C435.562 59.6956 435.18 60.7459 435.18 62.0478C435.18 63.3497 435.562 64.3999 436.326 65.1984C437.107 65.9969 438.096 66.3962 439.294 66.3962ZM457.535 54.9393C458.889 54.9393 460.095 55.2344 461.154 55.8246C462.23 56.4148 463.072 57.248 463.68 58.3243C464.287 59.4005 464.591 60.6417 464.591 62.0478C464.591 63.4538 464.287 64.7037 463.68 65.7973C463.072 66.8735 462.23 67.7068 461.154 68.297C460.095 68.8872 458.889 69.1823 457.535 69.1823C455.66 69.1823 454.176 68.5573 453.082 67.3075V74.0514H449.827V55.0955H452.926V56.9182C453.464 56.2586 454.124 55.7639 454.905 55.434C455.703 55.1042 456.58 54.9393 457.535 54.9393ZM457.17 66.3962C458.368 66.3962 459.349 65.9969 460.113 65.1984C460.894 64.3999 461.284 63.3497 461.284 62.0478C461.284 60.7459 460.894 59.6956 460.113 58.8971C459.349 58.0986 458.368 57.6994 457.17 57.6994C456.389 57.6994 455.686 57.8816 455.061 58.2462C454.436 58.5934 453.941 59.0968 453.577 59.7564C453.212 60.416 453.03 61.1798 453.03 62.0478C453.03 62.9157 453.212 63.6795 453.577 64.3391C453.941 64.9988 454.436 65.5109 455.061 65.8754C455.686 66.2226 456.389 66.3962 457.17 66.3962ZM480.749 62.1259C480.749 62.3516 480.732 62.6727 480.697 63.0893H469.787C469.978 64.1135 470.473 64.9293 471.271 65.5369C472.087 66.1271 473.094 66.4222 474.292 66.4222C475.819 66.4222 477.078 65.9188 478.067 64.912L479.812 66.9169C479.187 67.6634 478.397 68.2275 477.442 68.6094C476.487 68.9913 475.411 69.1823 474.213 69.1823C472.686 69.1823 471.341 68.8785 470.178 68.2709C469.014 67.6634 468.112 66.8215 467.47 65.7452C466.845 64.6516 466.532 63.4191 466.532 62.0478C466.532 60.6938 466.836 59.4787 467.444 58.4024C468.068 57.3088 468.928 56.4582 470.021 55.8507C471.115 55.2431 472.347 54.9393 473.719 54.9393C475.073 54.9393 476.279 55.2431 477.338 55.8507C478.414 56.4409 479.248 57.2828 479.838 58.3764C480.445 59.4526 480.749 60.7025 480.749 62.1259ZM473.719 57.5431C472.677 57.5431 471.792 57.8556 471.063 58.4805C470.351 59.0881 469.917 59.904 469.761 60.9281H477.651C477.512 59.9213 477.086 59.1054 476.375 58.4805C475.663 57.8556 474.778 57.5431 473.719 57.5431ZM486.974 57.1265C487.911 55.6684 489.561 54.9393 491.921 54.9393V58.0379C491.644 57.9858 491.392 57.9598 491.166 57.9598C489.899 57.9598 488.91 58.333 488.198 59.0794C487.486 59.8085 487.13 60.8674 487.13 62.2561V69H483.876V55.0955H486.974V57.1265ZM503.568 63.9225C502.96 63.9225 502.448 63.7229 502.032 63.3236C501.633 62.9244 501.433 62.3949 501.433 61.7353C501.433 61.1104 501.633 60.5983 502.032 60.1991C502.448 59.7824 502.96 59.5741 503.568 59.5741C504.193 59.5741 504.705 59.7738 505.104 60.173C505.504 60.5723 505.703 61.093 505.703 61.7353C505.703 62.3949 505.504 62.9244 505.104 63.3236C504.705 63.7229 504.193 63.9225 503.568 63.9225ZM522.564 69.2604C521.158 69.2604 519.795 69.0608 518.476 68.6615C517.174 68.2622 516.141 67.7328 515.378 67.0732L516.549 64.4433C517.296 65.0335 518.207 65.5195 519.283 65.9014C520.377 66.266 521.471 66.4482 522.564 66.4482C523.918 66.4482 524.925 66.2313 525.585 65.7973C526.262 65.3633 526.6 64.7905 526.6 64.0788C526.6 63.558 526.409 63.1327 526.027 62.8029C525.663 62.4557 525.194 62.1866 524.621 61.9957C524.048 61.8047 523.267 61.5878 522.278 61.3447C520.889 61.0149 519.761 60.6851 518.893 60.3553C518.042 60.0255 517.304 59.5134 516.68 58.819C516.072 58.1073 515.768 57.1526 515.768 55.9548C515.768 54.948 516.037 54.0367 516.575 53.2208C517.131 52.3876 517.955 51.7279 519.049 51.2419C520.16 50.7558 521.514 50.5128 523.111 50.5128C524.222 50.5128 525.316 50.6517 526.392 50.9294C527.468 51.2072 528.397 51.6064 529.178 52.1272L528.11 54.757C527.312 54.2884 526.479 53.9325 525.611 53.6895C524.743 53.4465 523.901 53.3249 523.085 53.3249C521.748 53.3249 520.75 53.5506 520.091 54.0019C519.448 54.4533 519.127 55.0521 519.127 55.7986C519.127 56.3193 519.309 56.7446 519.674 57.0745C520.056 57.4043 520.533 57.6647 521.106 57.8556C521.679 58.0466 522.46 58.2635 523.449 58.5066C524.803 58.819 525.914 59.1488 526.782 59.496C527.65 59.8258 528.388 60.3379 528.996 61.0323C529.621 61.7266 529.933 62.664 529.933 63.8444C529.933 64.8512 529.655 65.7626 529.1 66.5784C528.562 67.3943 527.737 68.0453 526.626 68.5313C525.515 69.0174 524.161 69.2604 522.564 69.2604ZM538.289 54.9393C540.337 54.9393 541.9 55.434 542.976 56.4235C544.069 57.3956 544.616 58.8711 544.616 60.85V69H541.544V67.3075C541.144 67.9151 540.572 68.3838 539.825 68.7136C539.096 69.026 538.211 69.1823 537.169 69.1823C536.128 69.1823 535.216 69.0087 534.435 68.6615C533.654 68.297 533.046 67.8022 532.613 67.1773C532.196 66.535 531.988 65.8146 531.988 65.0161C531.988 63.7663 532.448 62.7682 533.368 62.0217C534.305 61.2579 535.772 60.876 537.768 60.876H541.361V60.6677C541.361 59.6956 541.066 58.9492 540.476 58.4284C539.903 57.9077 539.044 57.6473 537.898 57.6473C537.117 57.6473 536.345 57.7688 535.581 58.0118C534.834 58.2549 534.201 58.5934 533.68 59.0273L532.404 56.6578C533.133 56.1024 534.01 55.6771 535.034 55.382C536.058 55.0869 537.143 54.9393 538.289 54.9393ZM537.846 66.8128C538.662 66.8128 539.382 66.6305 540.007 66.266C540.65 65.8841 541.101 65.346 541.361 64.6516V63.0372H538.002C536.128 63.0372 535.19 63.6535 535.19 64.8859C535.19 65.4761 535.425 65.9448 535.893 66.292C536.362 66.6392 537.013 66.8128 537.846 66.8128ZM551.892 57.1265C552.829 55.6684 554.478 54.9393 556.839 54.9393V58.0379C556.561 57.9858 556.31 57.9598 556.084 57.9598C554.817 57.9598 553.827 58.333 553.116 59.0794C552.404 59.8085 552.048 60.8674 552.048 62.2561V69H548.793V55.0955H551.892V57.1265ZM564.836 54.9393C566.884 54.9393 568.446 55.434 569.523 56.4235C570.616 57.3956 571.163 58.8711 571.163 60.85V69H568.091V67.3075C567.691 67.9151 567.118 68.3838 566.372 68.7136C565.643 69.026 564.758 69.1823 563.716 69.1823C562.675 69.1823 561.763 69.0087 560.982 68.6615C560.201 68.297 559.593 67.8022 559.159 67.1773C558.743 66.535 558.534 65.8146 558.534 65.0161C558.534 63.7663 558.994 62.7682 559.915 62.0217C560.852 61.2579 562.319 60.876 564.315 60.876H567.908V60.6677C567.908 59.6956 567.613 58.9492 567.023 58.4284C566.45 57.9077 565.591 57.6473 564.445 57.6473C563.664 57.6473 562.892 57.7688 562.128 58.0118C561.381 58.2549 560.748 58.5934 560.227 59.0273L558.951 56.6578C559.68 56.1024 560.557 55.6771 561.581 55.382C562.605 55.0869 563.69 54.9393 564.836 54.9393ZM564.393 66.8128C565.209 66.8128 565.929 66.6305 566.554 66.266C567.197 65.8841 567.648 65.346 567.908 64.6516V63.0372H564.549C562.675 63.0372 561.737 63.6535 561.737 64.8859C561.737 65.4761 561.972 65.9448 562.44 66.292C562.909 66.6392 563.56 66.8128 564.393 66.8128ZM588.499 69.2604C587.093 69.2604 585.73 69.0608 584.411 68.6615C583.109 68.2622 582.076 67.7328 581.313 67.0732L582.484 64.4433C583.231 65.0335 584.142 65.5195 585.218 65.9014C586.312 66.266 587.405 66.4482 588.499 66.4482C589.853 66.4482 590.86 66.2313 591.52 65.7973C592.197 65.3633 592.535 64.7905 592.535 64.0788C592.535 63.558 592.344 63.1327 591.962 62.8029C591.598 62.4557 591.129 62.1866 590.556 61.9957C589.983 61.8047 589.202 61.5878 588.213 61.3447C586.824 61.0149 585.696 60.6851 584.828 60.3553C583.977 60.0255 583.239 59.5134 582.614 58.819C582.007 58.1073 581.703 57.1526 581.703 55.9548C581.703 54.948 581.972 54.0367 582.51 53.2208C583.066 52.3876 583.89 51.7279 584.984 51.2419C586.095 50.7558 587.449 50.5128 589.046 50.5128C590.157 50.5128 591.25 50.6517 592.327 50.9294C593.403 51.2072 594.332 51.6064 595.113 52.1272L594.045 54.757C593.247 54.2884 592.414 53.9325 591.546 53.6895C590.678 53.4465 589.836 53.3249 589.02 53.3249C587.683 53.3249 586.685 53.5506 586.025 54.0019C585.383 54.4533 585.062 55.0521 585.062 55.7986C585.062 56.3193 585.244 56.7446 585.609 57.0745C585.991 57.4043 586.468 57.6647 587.041 57.8556C587.614 58.0466 588.395 58.2635 589.384 58.5066C590.738 58.819 591.849 59.1488 592.717 59.496C593.585 59.8258 594.323 60.3379 594.931 61.0323C595.555 61.7266 595.868 62.664 595.868 63.8444C595.868 64.8512 595.59 65.7626 595.035 66.5784C594.497 67.3943 593.672 68.0453 592.561 68.5313C591.45 69.0174 590.096 69.2604 588.499 69.2604ZM611.677 55.0955L605.714 69H602.355L596.392 55.0955H599.777L604.1 65.4067L608.552 55.0955H611.677ZM626.401 62.1259C626.401 62.3516 626.384 62.6727 626.349 63.0893H615.439C615.63 64.1135 616.124 64.9293 616.923 65.5369C617.739 66.1271 618.746 66.4222 619.943 66.4222C621.471 66.4222 622.729 65.9188 623.719 64.912L625.464 66.9169C624.839 67.6634 624.049 68.2275 623.094 68.6094C622.139 68.9913 621.063 69.1823 619.865 69.1823C618.338 69.1823 616.992 68.8785 615.829 68.2709C614.666 67.6634 613.764 66.8215 613.121 65.7452C612.496 64.6516 612.184 63.4191 612.184 62.0478C612.184 60.6938 612.488 59.4787 613.095 58.4024C613.72 57.3088 614.579 56.4582 615.673 55.8507C616.767 55.2431 617.999 54.9393 619.371 54.9393C620.725 54.9393 621.931 55.2431 622.99 55.8507C624.066 56.4409 624.899 57.2828 625.49 58.3764C626.097 59.4526 626.401 60.7025 626.401 62.1259ZM619.371 57.5431C618.329 57.5431 617.444 57.8556 616.715 58.4805C616.003 59.0881 615.569 59.904 615.413 60.9281H623.302C623.163 59.9213 622.738 59.1054 622.026 58.4805C621.315 57.8556 620.429 57.5431 619.371 57.5431ZM637.417 54.9393C639.17 54.9393 640.576 55.4514 641.635 56.4756C642.694 57.4997 643.223 59.0186 643.223 61.0323V69H639.969V61.4489C639.969 60.2338 639.682 59.3224 639.109 58.7149C638.537 58.0899 637.721 57.7775 636.662 57.7775C635.464 57.7775 634.518 58.142 633.824 58.8711C633.129 59.5828 632.782 60.6157 632.782 61.9697V69H629.527V55.0955H632.626V56.8922C633.164 56.2499 633.841 55.7639 634.657 55.434C635.473 55.1042 636.393 54.9393 637.417 54.9393ZM651.649 69.1823C650.52 69.1823 649.418 69.0347 648.342 68.7396C647.266 68.4445 646.406 68.0713 645.764 67.62L647.014 65.1463C647.639 65.5629 648.385 65.9014 649.253 66.1618C650.138 66.4048 651.006 66.5264 651.857 66.5264C653.801 66.5264 654.773 66.0143 654.773 64.9901C654.773 64.5041 654.522 64.1656 654.018 63.9746C653.532 63.7837 652.742 63.6014 651.649 63.4278C650.503 63.2542 649.566 63.0546 648.837 62.8289C648.125 62.6033 647.5 62.2127 646.962 61.6572C646.441 61.0844 646.181 60.2945 646.181 59.2877C646.181 57.9684 646.727 56.9182 647.821 56.1371C648.932 55.3386 650.425 54.9393 652.3 54.9393C653.254 54.9393 654.209 55.0521 655.164 55.2778C656.119 55.4861 656.9 55.7725 657.507 56.1371L656.257 58.6107C655.077 57.9164 653.749 57.5692 652.274 57.5692C651.319 57.5692 650.59 57.7167 650.086 58.0118C649.6 58.2896 649.357 58.6628 649.357 59.1315C649.357 59.6522 649.618 60.0255 650.138 60.2511C650.677 60.4594 651.501 60.6591 652.612 60.85C653.723 61.0236 654.634 61.2232 655.346 61.4489C656.058 61.6746 656.665 62.0565 657.169 62.5946C657.69 63.1327 657.95 63.8965 657.95 64.8859C657.95 66.1879 657.386 67.2294 656.257 68.0105C655.129 68.7917 653.593 69.1823 651.649 69.1823ZM665.049 69.1823C663.921 69.1823 662.819 69.0347 661.742 68.7396C660.666 68.4445 659.807 68.0713 659.165 67.62L660.414 65.1463C661.039 65.5629 661.786 65.9014 662.654 66.1618C663.539 66.4048 664.407 66.5264 665.258 66.5264C667.202 66.5264 668.174 66.0143 668.174 64.9901C668.174 64.5041 667.922 64.1656 667.419 63.9746C666.933 63.7837 666.143 63.6014 665.049 63.4278C663.904 63.2542 662.966 63.0546 662.237 62.8289C661.525 62.6033 660.9 62.2127 660.362 61.6572C659.842 61.0844 659.581 60.2945 659.581 59.2877C659.581 57.9684 660.128 56.9182 661.222 56.1371C662.333 55.3386 663.825 54.9393 665.7 54.9393C666.655 54.9393 667.61 55.0521 668.564 55.2778C669.519 55.4861 670.3 55.7725 670.908 56.1371L669.658 58.6107C668.478 57.9164 667.15 57.5692 665.674 57.5692C664.719 57.5692 663.99 57.7167 663.487 58.0118C663.001 58.2896 662.758 58.6628 662.758 59.1315C662.758 59.6522 663.018 60.0255 663.539 60.2511C664.077 60.4594 664.902 60.6591 666.013 60.85C667.124 61.0236 668.035 61.2232 668.747 61.4489C669.458 61.6746 670.066 62.0565 670.569 62.5946C671.09 63.1327 671.351 63.8965 671.351 64.8859C671.351 66.1879 670.786 67.2294 669.658 68.0105C668.53 68.7917 666.993 69.1823 665.049 69.1823ZM680.403 69.1823C678.997 69.1823 677.729 68.8785 676.601 68.2709C675.473 67.6634 674.587 66.8215 673.945 65.7452C673.32 64.6516 673.008 63.4191 673.008 62.0478C673.008 60.6764 673.32 59.4526 673.945 58.3764C674.587 57.3001 675.473 56.4582 676.601 55.8507C677.729 55.2431 678.997 54.9393 680.403 54.9393C681.826 54.9393 683.102 55.2431 684.23 55.8507C685.359 56.4582 686.235 57.3001 686.86 58.3764C687.502 59.4526 687.824 60.6764 687.824 62.0478C687.824 63.4191 687.502 64.6516 686.86 65.7452C686.235 66.8215 685.359 67.6634 684.23 68.2709C683.102 68.8785 681.826 69.1823 680.403 69.1823ZM680.403 66.3962C681.6 66.3962 682.59 65.9969 683.371 65.1984C684.152 64.3999 684.543 63.3497 684.543 62.0478C684.543 60.7459 684.152 59.6956 683.371 58.8971C682.59 58.0986 681.6 57.6994 680.403 57.6994C679.205 57.6994 678.215 58.0986 677.434 58.8971C676.671 59.6956 676.289 60.7459 676.289 62.0478C676.289 63.3497 676.671 64.3999 677.434 65.1984C678.215 65.9969 679.205 66.3962 680.403 66.3962ZM698.826 54.9393C700.579 54.9393 701.985 55.4514 703.044 56.4756C704.103 57.4997 704.632 59.0186 704.632 61.0323V69H701.377V61.4489C701.377 60.2338 701.091 59.3224 700.518 58.7149C699.945 58.0899 699.129 57.7775 698.071 57.7775C696.873 57.7775 695.927 58.142 695.232 58.8711C694.538 59.5828 694.191 60.6157 694.191 61.9697V69H690.936V55.0955H694.035V56.8922C694.573 56.2499 695.25 55.7639 696.066 55.434C696.881 55.1042 697.801 54.9393 698.826 54.9393ZM717.52 63.9225C716.912 63.9225 716.4 63.7229 715.983 63.3236C715.584 62.9244 715.384 62.3949 715.384 61.7353C715.384 61.1104 715.584 60.5983 715.983 60.1991C716.4 59.7824 716.912 59.5741 717.52 59.5741C718.144 59.5741 718.657 59.7738 719.056 60.173C719.455 60.5723 719.655 61.093 719.655 61.7353C719.655 62.3949 719.455 62.9244 719.056 63.3236C718.657 63.7229 718.144 63.9225 717.52 63.9225ZM734.25 53.6114V59.1575H743.051V62.0217H734.25V69H730.865V50.7732H744.171V53.6114H734.25ZM760.212 55.0955V69H757.114V67.2294C756.593 67.8543 755.942 68.3404 755.161 68.6875C754.38 69.0174 753.538 69.1823 752.635 69.1823C750.778 69.1823 749.311 68.6702 748.235 67.646C747.176 66.6045 746.646 65.0682 746.646 63.0372V55.0955H749.901V62.5946C749.901 63.8444 750.179 64.7818 750.734 65.4067C751.307 66.0143 752.114 66.3181 753.156 66.3181C754.319 66.3181 755.239 65.9622 755.916 65.2505C756.61 64.5214 756.958 63.4799 756.958 62.1259V55.0955H760.212ZM764.474 49.6796H767.729V69H764.474V49.6796ZM772.001 49.6796H775.255V69H772.001V49.6796ZM783.824 69.1823C782.695 69.1823 781.593 69.0347 780.517 68.7396C779.44 68.4445 778.581 68.0713 777.939 67.62L779.189 65.1463C779.814 65.5629 780.56 65.9014 781.428 66.1618C782.313 66.4048 783.181 66.5264 784.032 66.5264C785.976 66.5264 786.948 66.0143 786.948 64.9901C786.948 64.5041 786.697 64.1656 786.193 63.9746C785.707 63.7837 784.917 63.6014 783.824 63.4278C782.678 63.2542 781.741 63.0546 781.011 62.8289C780.3 62.6033 779.675 62.2127 779.137 61.6572C778.616 61.0844 778.356 60.2945 778.356 59.2877C778.356 57.9684 778.902 56.9182 779.996 56.1371C781.107 55.3386 782.6 54.9393 784.475 54.9393C785.429 54.9393 786.384 55.0521 787.339 55.2778C788.294 55.4861 789.075 55.7725 789.682 56.1371L788.432 58.6107C787.252 57.9164 785.924 57.5692 784.449 57.5692C783.494 57.5692 782.765 57.7167 782.261 58.0118C781.775 58.2896 781.532 58.6628 781.532 59.1315C781.532 59.6522 781.793 60.0255 782.313 60.2511C782.852 60.4594 783.676 60.6591 784.787 60.85C785.898 61.0236 786.809 61.2232 787.521 61.4489C788.233 61.6746 788.84 62.0565 789.344 62.5946C789.865 63.1327 790.125 63.8965 790.125 64.8859C790.125 66.1879 789.561 67.2294 788.432 68.0105C787.304 68.7917 785.768 69.1823 783.824 69.1823ZM801.286 68.2449C800.904 68.5573 800.436 68.7917 799.88 68.9479C799.342 69.1042 798.769 69.1823 798.162 69.1823C796.634 69.1823 795.454 68.783 794.62 67.9845C793.787 67.186 793.371 66.023 793.371 64.4954V57.8035H791.079V55.1997H793.371V52.023H796.625V55.1997H800.349V57.8035H796.625V64.4173C796.625 65.0943 796.79 65.615 797.12 65.9796C797.45 66.3267 797.927 66.5003 798.552 66.5003C799.281 66.5003 799.889 66.3094 800.375 65.9275L801.286 68.2449ZM809.275 54.9393C811.324 54.9393 812.886 55.434 813.962 56.4235C815.056 57.3956 815.603 58.8711 815.603 60.85V69H812.53V67.3075C812.131 67.9151 811.558 68.3838 810.812 68.7136C810.083 69.026 809.197 69.1823 808.156 69.1823C807.114 69.1823 806.203 69.0087 805.422 68.6615C804.641 68.297 804.033 67.8022 803.599 67.1773C803.182 66.535 802.974 65.8146 802.974 65.0161C802.974 63.7663 803.434 62.7682 804.354 62.0217C805.292 61.2579 806.758 60.876 808.755 60.876H812.348V60.6677C812.348 59.6956 812.053 58.9492 811.463 58.4284C810.89 57.9077 810.031 57.6473 808.885 57.6473C808.104 57.6473 807.331 57.7688 806.567 58.0118C805.821 58.2549 805.187 58.5934 804.667 59.0273L803.391 56.6578C804.12 56.1024 804.996 55.6771 806.021 55.382C807.045 55.0869 808.13 54.9393 809.275 54.9393ZM808.833 66.8128C809.649 66.8128 810.369 66.6305 810.994 66.266C811.636 65.8841 812.088 65.346 812.348 64.6516V63.0372H808.989C807.114 63.0372 806.177 63.6535 806.177 64.8859C806.177 65.4761 806.411 65.9448 806.88 66.292C807.349 66.6392 808 66.8128 808.833 66.8128ZM826.286 69.1823C824.846 69.1823 823.552 68.8785 822.407 68.2709C821.261 67.6634 820.367 66.8215 819.725 65.7452C819.082 64.6516 818.761 63.4191 818.761 62.0478C818.761 60.6764 819.082 59.4526 819.725 58.3764C820.367 57.3001 821.252 56.4582 822.381 55.8507C823.526 55.2431 824.828 54.9393 826.286 54.9393C827.658 54.9393 828.855 55.2171 829.88 55.7725C830.921 56.328 831.702 57.1265 832.223 58.1681L829.723 59.6262C829.324 58.9839 828.821 58.5066 828.213 58.1941C827.623 57.8643 826.972 57.6994 826.26 57.6994C825.045 57.6994 824.038 58.0986 823.24 58.8971C822.441 59.6783 822.042 60.7285 822.042 62.0478C822.042 63.367 822.433 64.4259 823.214 65.2244C824.012 66.0056 825.028 66.3962 826.26 66.3962C826.972 66.3962 827.623 66.2399 828.213 65.9275C828.821 65.5977 829.324 65.1116 829.723 64.4693L832.223 65.9275C831.685 66.969 830.895 67.7762 829.854 68.349C828.829 68.9045 827.64 69.1823 826.286 69.1823ZM840.586 63.0372L838.164 65.3286V69H834.91V49.6796H838.164V61.3447L844.908 55.0955H848.814L843.007 60.9281L849.361 69H845.403L840.586 63.0372ZM858.972 50.7732H866.939C868.884 50.7732 870.611 51.1551 872.121 51.9189C873.631 52.6653 874.803 53.7329 875.636 55.1216C876.47 56.4929 876.886 58.0813 876.886 59.8866C876.886 61.6919 876.47 63.2889 875.636 64.6776C874.803 66.049 873.631 67.1166 872.121 67.8804C870.611 68.6268 868.884 69 866.939 69H858.972V50.7732ZM866.783 66.1358C868.12 66.1358 869.292 65.8841 870.298 65.3807C871.323 64.8599 872.104 64.1308 872.642 63.1935C873.197 62.2387 873.475 61.1364 873.475 59.8866C873.475 58.6368 873.197 57.5431 872.642 56.6058C872.104 55.651 871.323 54.922 870.298 54.4185C869.292 53.8978 868.12 53.6374 866.783 53.6374H862.357V66.1358H866.783ZM893.243 62.1259C893.243 62.3516 893.225 62.6727 893.191 63.0893H882.281C882.472 64.1135 882.966 64.9293 883.765 65.5369C884.581 66.1271 885.587 66.4222 886.785 66.4222C888.313 66.4222 889.571 65.9188 890.561 64.912L892.305 66.9169C891.68 67.6634 890.891 68.2275 889.936 68.6094C888.981 68.9913 887.905 69.1823 886.707 69.1823C885.179 69.1823 883.834 68.8785 882.671 68.2709C881.508 67.6634 880.605 66.8215 879.963 65.7452C879.338 64.6516 879.026 63.4191 879.026 62.0478C879.026 60.6938 879.33 59.4787 879.937 58.4024C880.562 57.3088 881.421 56.4582 882.515 55.8507C883.609 55.2431 884.841 54.9393 886.212 54.9393C887.566 54.9393 888.773 55.2431 889.832 55.8507C890.908 56.4409 891.741 57.2828 892.331 58.3764C892.939 59.4526 893.243 60.7025 893.243 62.1259ZM886.212 57.5431C885.171 57.5431 884.286 57.8556 883.556 58.4805C882.845 59.0881 882.411 59.904 882.255 60.9281H890.144C890.005 59.9213 889.58 59.1054 888.868 58.4805C888.157 57.8556 887.271 57.5431 886.212 57.5431ZM909.134 55.0955L903.171 69H899.812L893.849 55.0955H897.234L901.557 65.4067L906.009 55.0955H909.134ZM923.858 62.1259C923.858 62.3516 923.841 62.6727 923.806 63.0893H912.896C913.087 64.1135 913.582 64.9293 914.38 65.5369C915.196 66.1271 916.203 66.4222 917.401 66.4222C918.928 66.4222 920.187 65.9188 921.176 64.912L922.921 66.9169C922.296 67.6634 921.506 68.2275 920.551 68.6094C919.596 68.9913 918.52 69.1823 917.322 69.1823C915.795 69.1823 914.45 68.8785 913.286 68.2709C912.123 67.6634 911.221 66.8215 910.579 65.7452C909.954 64.6516 909.641 63.4191 909.641 62.0478C909.641 60.6938 909.945 59.4787 910.552 58.4024C911.177 57.3088 912.037 56.4582 913.13 55.8507C914.224 55.2431 915.456 54.9393 916.828 54.9393C918.182 54.9393 919.388 55.2431 920.447 55.8507C921.523 56.4409 922.357 57.2828 922.947 58.3764C923.554 59.4526 923.858 60.7025 923.858 62.1259ZM916.828 57.5431C915.786 57.5431 914.901 57.8556 914.172 58.4805C913.46 59.0881 913.026 59.904 912.87 60.9281H920.759C920.621 59.9213 920.195 59.1054 919.484 58.4805C918.772 57.8556 917.887 57.5431 916.828 57.5431ZM926.984 49.6796H930.239V69H926.984V49.6796ZM940.76 69.1823C939.354 69.1823 938.087 68.8785 936.959 68.2709C935.83 67.6634 934.945 66.8215 934.303 65.7452C933.678 64.6516 933.365 63.4191 933.365 62.0478C933.365 60.6764 933.678 59.4526 934.303 58.3764C934.945 57.3001 935.83 56.4582 936.959 55.8507C938.087 55.2431 939.354 54.9393 940.76 54.9393C942.184 54.9393 943.46 55.2431 944.588 55.8507C945.716 56.4582 946.593 57.3001 947.218 58.3764C947.86 59.4526 948.181 60.6764 948.181 62.0478C948.181 63.4191 947.86 64.6516 947.218 65.7452C946.593 66.8215 945.716 67.6634 944.588 68.2709C943.46 68.8785 942.184 69.1823 940.76 69.1823ZM940.76 66.3962C941.958 66.3962 942.948 65.9969 943.729 65.1984C944.51 64.3999 944.9 63.3497 944.9 62.0478C944.9 60.7459 944.51 59.6956 943.729 58.8971C942.948 58.0986 941.958 57.6994 940.76 57.6994C939.563 57.6994 938.573 58.0986 937.792 58.8971C937.028 59.6956 936.646 60.7459 936.646 62.0478C936.646 63.3497 937.028 64.3999 937.792 65.1984C938.573 65.9969 939.563 66.3962 940.76 66.3962ZM959.001 54.9393C960.355 54.9393 961.561 55.2344 962.62 55.8246C963.697 56.4148 964.538 57.248 965.146 58.3243C965.754 59.4005 966.057 60.6417 966.057 62.0478C966.057 63.4538 965.754 64.7037 965.146 65.7973C964.538 66.8735 963.697 67.7068 962.62 68.297C961.561 68.8872 960.355 69.1823 959.001 69.1823C957.126 69.1823 955.642 68.5573 954.548 67.3075V74.0514H951.294V55.0955H954.392V56.9182C954.93 56.2586 955.59 55.7639 956.371 55.434C957.17 55.1042 958.046 54.9393 959.001 54.9393ZM958.636 66.3962C959.834 66.3962 960.815 65.9969 961.579 65.1984C962.36 64.3999 962.751 63.3497 962.751 62.0478C962.751 60.7459 962.36 59.6956 961.579 58.8971C960.815 58.0986 959.834 57.6994 958.636 57.6994C957.855 57.6994 957.152 57.8816 956.527 58.2462C955.902 58.5934 955.408 59.0968 955.043 59.7564C954.679 60.416 954.496 61.1798 954.496 62.0478C954.496 62.9157 954.679 63.6795 955.043 64.3391C955.408 64.9988 955.902 65.5109 956.527 65.8754C957.152 66.2226 957.855 66.3962 958.636 66.3962ZM982.215 62.1259C982.215 62.3516 982.198 62.6727 982.163 63.0893H971.253C971.444 64.1135 971.939 64.9293 972.737 65.5369C973.553 66.1271 974.56 66.4222 975.758 66.4222C977.285 66.4222 978.544 65.9188 979.533 64.912L981.278 66.9169C980.653 67.6634 979.863 68.2275 978.908 68.6094C977.954 68.9913 976.877 69.1823 975.68 69.1823C974.152 69.1823 972.807 68.8785 971.644 68.2709C970.481 67.6634 969.578 66.8215 968.936 65.7452C968.311 64.6516 967.998 63.4191 967.998 62.0478C967.998 60.6938 968.302 59.4787 968.91 58.4024C969.535 57.3088 970.394 56.4582 971.488 55.8507C972.581 55.2431 973.814 54.9393 975.185 54.9393C976.539 54.9393 977.745 55.2431 978.804 55.8507C979.881 56.4409 980.714 57.2828 981.304 58.3764C981.912 59.4526 982.215 60.7025 982.215 62.1259ZM975.185 57.5431C974.143 57.5431 973.258 57.8556 972.529 58.4805C971.817 59.0881 971.383 59.904 971.227 60.9281H979.117C978.978 59.9213 978.553 59.1054 977.841 58.4805C977.129 57.8556 976.244 57.5431 975.185 57.5431ZM988.44 57.1265C989.378 55.6684 991.027 54.9393 993.388 54.9393V58.0379C993.11 57.9858 992.858 57.9598 992.633 57.9598C991.365 57.9598 990.376 58.333 989.664 59.0794C988.952 59.8085 988.597 60.8674 988.597 62.2561V69H985.342V55.0955H988.44V57.1265ZM1005.03 63.9225C1004.43 63.9225 1003.91 63.7229 1003.5 63.3236C1003.1 62.9244 1002.9 62.3949 1002.9 61.7353C1002.9 61.1104 1003.1 60.5983 1003.5 60.1991C1003.91 59.7824 1004.43 59.5741 1005.03 59.5741C1005.66 59.5741 1006.17 59.7738 1006.57 60.173C1006.97 60.5723 1007.17 61.093 1007.17 61.7353C1007.17 62.3949 1006.97 62.9244 1006.57 63.3236C1006.17 63.7229 1005.66 63.9225 1005.03 63.9225ZM1024.03 69.2604C1022.62 69.2604 1021.26 69.0608 1019.94 68.6615C1018.64 68.2622 1017.61 67.7328 1016.84 67.0732L1018.02 64.4433C1018.76 65.0335 1019.67 65.5195 1020.75 65.9014C1021.84 66.266 1022.94 66.4482 1024.03 66.4482C1025.38 66.4482 1026.39 66.2313 1027.05 65.7973C1027.73 65.3633 1028.07 64.7905 1028.07 64.0788C1028.07 63.558 1027.88 63.1327 1027.49 62.8029C1027.13 62.4557 1026.66 62.1866 1026.09 61.9957C1025.51 61.8047 1024.73 61.5878 1023.74 61.3447C1022.36 61.0149 1021.23 60.6851 1020.36 60.3553C1019.51 60.0255 1018.77 59.5134 1018.15 58.819C1017.54 58.1073 1017.23 57.1526 1017.23 55.9548C1017.23 54.948 1017.5 54.0367 1018.04 53.2208C1018.6 52.3876 1019.42 51.7279 1020.52 51.2419C1021.63 50.7558 1022.98 50.5128 1024.58 50.5128C1025.69 50.5128 1026.78 50.6517 1027.86 50.9294C1028.93 51.2072 1029.86 51.6064 1030.64 52.1272L1029.58 54.757C1028.78 54.2884 1027.94 53.9325 1027.08 53.6895C1026.21 53.4465 1025.37 53.3249 1024.55 53.3249C1023.21 53.3249 1022.22 53.5506 1021.56 54.0019C1020.91 54.4533 1020.59 55.0521 1020.59 55.7986C1020.59 56.3193 1020.78 56.7446 1021.14 57.0745C1021.52 57.4043 1022 57.6647 1022.57 57.8556C1023.15 58.0466 1023.93 58.2635 1024.92 58.5066C1026.27 58.819 1027.38 59.1488 1028.25 59.496C1029.12 59.8258 1029.85 60.3379 1030.46 61.0323C1031.09 61.7266 1031.4 62.664 1031.4 63.8444C1031.4 64.8512 1031.12 65.7626 1030.57 66.5784C1030.03 67.3943 1029.2 68.0453 1028.09 68.5313C1026.98 69.0174 1025.63 69.2604 1024.03 69.2604ZM1039.76 54.9393C1041.8 54.9393 1043.37 55.434 1044.44 56.4235C1045.54 57.3956 1046.08 58.8711 1046.08 60.85V69H1043.01V67.3075C1042.61 67.9151 1042.04 68.3838 1041.29 68.7136C1040.56 69.026 1039.68 69.1823 1038.64 69.1823C1037.59 69.1823 1036.68 69.0087 1035.9 68.6615C1035.12 68.297 1034.51 67.8022 1034.08 67.1773C1033.66 66.535 1033.45 65.8146 1033.45 65.0161C1033.45 63.7663 1033.91 62.7682 1034.83 62.0217C1035.77 61.2579 1037.24 60.876 1039.23 60.876H1042.83V60.6677C1042.83 59.6956 1042.53 58.9492 1041.94 58.4284C1041.37 57.9077 1040.51 57.6473 1039.36 57.6473C1038.58 57.6473 1037.81 57.7688 1037.05 58.0118C1036.3 58.2549 1035.67 58.5934 1035.15 59.0273L1033.87 56.6578C1034.6 56.1024 1035.48 55.6771 1036.5 55.382C1037.52 55.0869 1038.61 54.9393 1039.76 54.9393ZM1039.31 66.8128C1040.13 66.8128 1040.85 66.6305 1041.47 66.266C1042.12 65.8841 1042.57 65.346 1042.83 64.6516V63.0372H1039.47C1037.59 63.0372 1036.66 63.6535 1036.66 64.8859C1036.66 65.4761 1036.89 65.9448 1037.36 66.292C1037.83 66.6392 1038.48 66.8128 1039.31 66.8128ZM1053.36 57.1265C1054.3 55.6684 1055.94 54.9393 1058.31 54.9393V58.0379C1058.03 57.9858 1057.78 57.9598 1057.55 57.9598C1056.28 57.9598 1055.29 58.333 1054.58 59.0794C1053.87 59.8085 1053.51 60.8674 1053.51 62.2561V69H1050.26V55.0955H1053.36V57.1265ZM1066.3 54.9393C1068.35 54.9393 1069.91 55.434 1070.99 56.4235C1072.08 57.3956 1072.63 58.8711 1072.63 60.85V69H1069.56V67.3075C1069.16 67.9151 1068.58 68.3838 1067.84 68.7136C1067.11 69.026 1066.22 69.1823 1065.18 69.1823C1064.14 69.1823 1063.23 69.0087 1062.45 68.6615C1061.67 68.297 1061.06 67.8022 1060.63 67.1773C1060.21 66.535 1060 65.8146 1060 65.0161C1060 63.7663 1060.46 62.7682 1061.38 62.0217C1062.32 61.2579 1063.79 60.876 1065.78 60.876H1069.37V60.6677C1069.37 59.6956 1069.08 58.9492 1068.49 58.4284C1067.92 57.9077 1067.06 57.6473 1065.91 57.6473C1065.13 57.6473 1064.36 57.7688 1063.59 58.0118C1062.85 58.2549 1062.21 58.5934 1061.69 59.0273L1060.42 56.6578C1061.15 56.1024 1062.02 55.6771 1063.05 55.382C1064.07 55.0869 1065.16 54.9393 1066.3 54.9393ZM1065.86 66.8128C1066.68 66.8128 1067.4 66.6305 1068.02 66.266C1068.66 65.8841 1069.11 65.346 1069.37 64.6516V63.0372H1066.02C1064.14 63.0372 1063.2 63.6535 1063.2 64.8859C1063.2 65.4761 1063.44 65.9448 1063.91 66.292C1064.38 66.6392 1065.03 66.8128 1065.86 66.8128ZM1089.97 69.2604C1088.56 69.2604 1087.2 69.0608 1085.88 68.6615C1084.58 68.2622 1083.54 67.7328 1082.78 67.0732L1083.95 64.4433C1084.7 65.0335 1085.61 65.5195 1086.68 65.9014C1087.78 66.266 1088.87 66.4482 1089.97 66.4482C1091.32 66.4482 1092.33 66.2313 1092.99 65.7973C1093.66 65.3633 1094 64.7905 1094 64.0788C1094 63.558 1093.81 63.1327 1093.43 62.8029C1093.06 62.4557 1092.6 62.1866 1092.02 61.9957C1091.45 61.8047 1090.67 61.5878 1089.68 61.3447C1088.29 61.0149 1087.16 60.6851 1086.29 60.3553C1085.44 60.0255 1084.71 59.5134 1084.08 58.819C1083.47 58.1073 1083.17 57.1526 1083.17 55.9548C1083.17 54.948 1083.44 54.0367 1083.98 53.2208C1084.53 52.3876 1085.36 51.7279 1086.45 51.2419C1087.56 50.7558 1088.92 50.5128 1090.51 50.5128C1091.62 50.5128 1092.72 50.6517 1093.79 50.9294C1094.87 51.2072 1095.8 51.6064 1096.58 52.1272L1095.51 54.757C1094.71 54.2884 1093.88 53.9325 1093.01 53.6895C1092.14 53.4465 1091.3 53.3249 1090.49 53.3249C1089.15 53.3249 1088.15 53.5506 1087.49 54.0019C1086.85 54.4533 1086.53 55.0521 1086.53 55.7986C1086.53 56.3193 1086.71 56.7446 1087.08 57.0745C1087.46 57.4043 1087.93 57.6647 1088.51 57.8556C1089.08 58.0466 1089.86 58.2635 1090.85 58.5066C1092.2 58.819 1093.32 59.1488 1094.18 59.496C1095.05 59.8258 1095.79 60.3379 1096.4 61.0323C1097.02 61.7266 1097.33 62.664 1097.33 63.8444C1097.33 64.8512 1097.06 65.7626 1096.5 66.5784C1095.96 67.3943 1095.14 68.0453 1094.03 68.5313C1092.92 69.0174 1091.56 69.2604 1089.97 69.2604ZM1113.14 55.0955L1107.18 69H1103.82L1097.86 55.0955H1101.24L1105.57 65.4067L1110.02 55.0955H1113.14ZM1127.87 62.1259C1127.87 62.3516 1127.85 62.6727 1127.82 63.0893H1116.91C1117.1 64.1135 1117.59 64.9293 1118.39 65.5369C1119.21 66.1271 1120.21 66.4222 1121.41 66.4222C1122.94 66.4222 1124.2 65.9188 1125.19 64.912L1126.93 66.9169C1126.3 67.6634 1125.52 68.2275 1124.56 68.6094C1123.61 68.9913 1122.53 69.1823 1121.33 69.1823C1119.8 69.1823 1118.46 68.8785 1117.3 68.2709C1116.13 67.6634 1115.23 66.8215 1114.59 65.7452C1113.96 64.6516 1113.65 63.4191 1113.65 62.0478C1113.65 60.6938 1113.95 59.4787 1114.56 58.4024C1115.19 57.3088 1116.05 56.4582 1117.14 55.8507C1118.23 55.2431 1119.47 54.9393 1120.84 54.9393C1122.19 54.9393 1123.4 55.2431 1124.46 55.8507C1125.53 56.4409 1126.37 57.2828 1126.96 58.3764C1127.56 59.4526 1127.87 60.7025 1127.87 62.1259ZM1120.84 57.5431C1119.8 57.5431 1118.91 57.8556 1118.18 58.4805C1117.47 59.0881 1117.04 59.904 1116.88 60.9281H1124.77C1124.63 59.9213 1124.2 59.1054 1123.49 58.4805C1122.78 57.8556 1121.9 57.5431 1120.84 57.5431ZM1138.88 54.9393C1140.64 54.9393 1142.04 55.4514 1143.1 56.4756C1144.16 57.4997 1144.69 59.0186 1144.69 61.0323V69H1141.43V61.4489C1141.43 60.2338 1141.15 59.3224 1140.58 58.7149C1140 58.0899 1139.19 57.7775 1138.13 57.7775C1136.93 57.7775 1135.98 58.142 1135.29 58.8711C1134.6 59.5828 1134.25 60.6157 1134.25 61.9697V69H1130.99V55.0955H1134.09V56.8922C1134.63 56.2499 1135.31 55.7639 1136.12 55.434C1136.94 55.1042 1137.86 54.9393 1138.88 54.9393ZM1153.11 69.1823C1151.99 69.1823 1150.88 69.0347 1149.81 68.7396C1148.73 68.4445 1147.87 68.0713 1147.23 67.62L1148.48 65.1463C1149.11 65.5629 1149.85 65.9014 1150.72 66.1618C1151.6 66.4048 1152.47 66.5264 1153.32 66.5264C1155.27 66.5264 1156.24 66.0143 1156.24 64.9901C1156.24 64.5041 1155.99 64.1656 1155.48 63.9746C1155 63.7837 1154.21 63.6014 1153.11 63.4278C1151.97 63.2542 1151.03 63.0546 1150.3 62.8289C1149.59 62.6033 1148.97 62.2127 1148.43 61.6572C1147.91 61.0844 1147.65 60.2945 1147.65 59.2877C1147.65 57.9684 1148.19 56.9182 1149.29 56.1371C1150.4 55.3386 1151.89 54.9393 1153.77 54.9393C1154.72 54.9393 1155.68 55.0521 1156.63 55.2778C1157.58 55.4861 1158.37 55.7725 1158.97 56.1371L1157.72 58.6107C1156.54 57.9164 1155.22 57.5692 1153.74 57.5692C1152.79 57.5692 1152.06 57.7167 1151.55 58.0118C1151.07 58.2896 1150.82 58.6628 1150.82 59.1315C1150.82 59.6522 1151.08 60.0255 1151.6 60.2511C1152.14 60.4594 1152.97 60.6591 1154.08 60.85C1155.19 61.0236 1156.1 61.2232 1156.81 61.4489C1157.52 61.6746 1158.13 62.0565 1158.64 62.5946C1159.16 63.1327 1159.42 63.8965 1159.42 64.8859C1159.42 66.1879 1158.85 67.2294 1157.72 68.0105C1156.6 68.7917 1155.06 69.1823 1153.11 69.1823ZM1166.52 69.1823C1165.39 69.1823 1164.28 69.0347 1163.21 68.7396C1162.13 68.4445 1161.27 68.0713 1160.63 67.62L1161.88 65.1463C1162.51 65.5629 1163.25 65.9014 1164.12 66.1618C1165.01 66.4048 1165.87 66.5264 1166.72 66.5264C1168.67 66.5264 1169.64 66.0143 1169.64 64.9901C1169.64 64.5041 1169.39 64.1656 1168.89 63.9746C1168.4 63.7837 1167.61 63.6014 1166.52 63.4278C1165.37 63.2542 1164.43 63.0546 1163.7 62.8289C1162.99 62.6033 1162.37 62.2127 1161.83 61.6572C1161.31 61.0844 1161.05 60.2945 1161.05 59.2877C1161.05 57.9684 1161.59 56.9182 1162.69 56.1371C1163.8 55.3386 1165.29 54.9393 1167.17 54.9393C1168.12 54.9393 1169.08 55.0521 1170.03 55.2778C1170.99 55.4861 1171.77 55.7725 1172.37 56.1371L1171.12 58.6107C1169.94 57.9164 1168.62 57.5692 1167.14 57.5692C1166.19 57.5692 1165.46 57.7167 1164.95 58.0118C1164.47 58.2896 1164.22 58.6628 1164.22 59.1315C1164.22 59.6522 1164.48 60.0255 1165.01 60.2511C1165.54 60.4594 1166.37 60.6591 1167.48 60.85C1168.59 61.0236 1169.5 61.2232 1170.21 61.4489C1170.92 61.6746 1171.53 62.0565 1172.04 62.5946C1172.56 63.1327 1172.82 63.8965 1172.82 64.8859C1172.82 66.1879 1172.25 67.2294 1171.12 68.0105C1170 68.7917 1168.46 69.1823 1166.52 69.1823ZM1181.87 69.1823C1180.46 69.1823 1179.2 68.8785 1178.07 68.2709C1176.94 67.6634 1176.05 66.8215 1175.41 65.7452C1174.79 64.6516 1174.47 63.4191 1174.47 62.0478C1174.47 60.6764 1174.79 59.4526 1175.41 58.3764C1176.05 57.3001 1176.94 56.4582 1178.07 55.8507C1179.2 55.2431 1180.46 54.9393 1181.87 54.9393C1183.29 54.9393 1184.57 55.2431 1185.7 55.8507C1186.82 56.4582 1187.7 57.3001 1188.33 58.3764C1188.97 59.4526 1189.29 60.6764 1189.29 62.0478C1189.29 63.4191 1188.97 64.6516 1188.33 65.7452C1187.7 66.8215 1186.82 67.6634 1185.7 68.2709C1184.57 68.8785 1183.29 69.1823 1181.87 69.1823ZM1181.87 66.3962C1183.07 66.3962 1184.06 65.9969 1184.84 65.1984C1185.62 64.3999 1186.01 63.3497 1186.01 62.0478C1186.01 60.7459 1185.62 59.6956 1184.84 58.8971C1184.06 58.0986 1183.07 57.6994 1181.87 57.6994C1180.67 57.6994 1179.68 58.0986 1178.9 58.8971C1178.14 59.6956 1177.75 60.7459 1177.75 62.0478C1177.75 63.3497 1178.14 64.3999 1178.9 65.1984C1179.68 65.9969 1180.67 66.3962 1181.87 66.3962ZM1200.29 54.9393C1202.05 54.9393 1203.45 55.4514 1204.51 56.4756C1205.57 57.4997 1206.1 59.0186 1206.1 61.0323V69H1202.84V61.4489C1202.84 60.2338 1202.56 59.3224 1201.98 58.7149C1201.41 58.0899 1200.6 57.7775 1199.54 57.7775C1198.34 57.7775 1197.39 58.142 1196.7 58.8711C1196 59.5828 1195.66 60.6157 1195.66 61.9697V69H1192.4V55.0955H1195.5V56.8922C1196.04 56.2499 1196.72 55.7639 1197.53 55.434C1198.35 55.1042 1199.27 54.9393 1200.29 54.9393ZM1218.99 63.9225C1218.38 63.9225 1217.87 63.7229 1217.45 63.3236C1217.05 62.9244 1216.85 62.3949 1216.85 61.7353C1216.85 61.1104 1217.05 60.5983 1217.45 60.1991C1217.87 59.7824 1218.38 59.5741 1218.99 59.5741C1219.61 59.5741 1220.12 59.7738 1220.52 60.173C1220.92 60.5723 1221.12 61.093 1221.12 61.7353C1221.12 62.3949 1220.92 62.9244 1220.52 63.3236C1220.12 63.7229 1219.61 63.9225 1218.99 63.9225ZM1235.72 53.6114V59.1575H1244.52V62.0217H1235.72V69H1232.33V50.7732H1245.64V53.6114H1235.72ZM1261.68 55.0955V69H1258.58V67.2294C1258.06 67.8543 1257.41 68.3404 1256.63 68.6875C1255.85 69.0174 1255 69.1823 1254.1 69.1823C1252.24 69.1823 1250.78 68.6702 1249.7 67.646C1248.64 66.6045 1248.11 65.0682 1248.11 63.0372V55.0955H1251.37V62.5946C1251.37 63.8444 1251.65 64.7818 1252.2 65.4067C1252.77 66.0143 1253.58 66.3181 1254.62 66.3181C1255.79 66.3181 1256.71 65.9622 1257.38 65.2505C1258.08 64.5214 1258.42 63.4799 1258.42 62.1259V55.0955H1261.68ZM1265.94 49.6796H1269.19V69H1265.94V49.6796ZM1273.47 49.6796H1276.72V69H1273.47V49.6796ZM1285.29 69.1823C1284.16 69.1823 1283.06 69.0347 1281.98 68.7396C1280.91 68.4445 1280.05 68.0713 1279.41 67.62L1280.66 65.1463C1281.28 65.5629 1282.03 65.9014 1282.89 66.1618C1283.78 66.4048 1284.65 66.5264 1285.5 66.5264C1287.44 66.5264 1288.41 66.0143 1288.41 64.9901C1288.41 64.5041 1288.16 64.1656 1287.66 63.9746C1287.17 63.7837 1286.38 63.6014 1285.29 63.4278C1284.14 63.2542 1283.21 63.0546 1282.48 62.8289C1281.77 62.6033 1281.14 62.2127 1280.6 61.6572C1280.08 61.0844 1279.82 60.2945 1279.82 59.2877C1279.82 57.9684 1280.37 56.9182 1281.46 56.1371C1282.57 55.3386 1284.07 54.9393 1285.94 54.9393C1286.9 54.9393 1287.85 55.0521 1288.81 55.2778C1289.76 55.4861 1290.54 55.7725 1291.15 56.1371L1289.9 58.6107C1288.72 57.9164 1287.39 57.5692 1285.91 57.5692C1284.96 57.5692 1284.23 57.7167 1283.73 58.0118C1283.24 58.2896 1283 58.6628 1283 59.1315C1283 59.6522 1283.26 60.0255 1283.78 60.2511C1284.32 60.4594 1285.14 60.6591 1286.25 60.85C1287.36 61.0236 1288.28 61.2232 1288.99 61.4489C1289.7 61.6746 1290.31 62.0565 1290.81 62.5946C1291.33 63.1327 1291.59 63.8965 1291.59 64.8859C1291.59 66.1879 1291.03 67.2294 1289.9 68.0105C1288.77 68.7917 1287.23 69.1823 1285.29 69.1823ZM1302.75 68.2449C1302.37 68.5573 1301.9 68.7917 1301.35 68.9479C1300.81 69.1042 1300.24 69.1823 1299.63 69.1823C1298.1 69.1823 1296.92 68.783 1296.09 67.9845C1295.25 67.186 1294.84 66.023 1294.84 64.4954V57.8035H1292.55V55.1997H1294.84V52.023H1298.09V55.1997H1301.82V57.8035H1298.09V64.4173C1298.09 65.0943 1298.26 65.615 1298.59 65.9796C1298.92 66.3267 1299.39 66.5003 1300.02 66.5003C1300.75 66.5003 1301.36 66.3094 1301.84 65.9275L1302.75 68.2449ZM1310.74 54.9393C1312.79 54.9393 1314.35 55.434 1315.43 56.4235C1316.52 57.3956 1317.07 58.8711 1317.07 60.85V69H1314V67.3075C1313.6 67.9151 1313.02 68.3838 1312.28 68.7136C1311.55 69.026 1310.66 69.1823 1309.62 69.1823C1308.58 69.1823 1307.67 69.0087 1306.89 68.6615C1306.11 68.297 1305.5 67.8022 1305.07 67.1773C1304.65 66.535 1304.44 65.8146 1304.44 65.0161C1304.44 63.7663 1304.9 62.7682 1305.82 62.0217C1306.76 61.2579 1308.22 60.876 1310.22 60.876H1313.81V60.6677C1313.81 59.6956 1313.52 58.9492 1312.93 58.4284C1312.36 57.9077 1311.5 57.6473 1310.35 57.6473C1309.57 57.6473 1308.8 57.7688 1308.03 58.0118C1307.29 58.2549 1306.65 58.5934 1306.13 59.0273L1304.86 56.6578C1305.59 56.1024 1306.46 55.6771 1307.49 55.382C1308.51 55.0869 1309.6 54.9393 1310.74 54.9393ZM1310.3 66.8128C1311.11 66.8128 1311.84 66.6305 1312.46 66.266C1313.1 65.8841 1313.55 65.346 1313.81 64.6516V63.0372H1310.46C1308.58 63.0372 1307.64 63.6535 1307.64 64.8859C1307.64 65.4761 1307.88 65.9448 1308.35 66.292C1308.81 66.6392 1309.47 66.8128 1310.3 66.8128ZM1327.75 69.1823C1326.31 69.1823 1325.02 68.8785 1323.87 68.2709C1322.73 67.6634 1321.83 66.8215 1321.19 65.7452C1320.55 64.6516 1320.23 63.4191 1320.23 62.0478C1320.23 60.6764 1320.55 59.4526 1321.19 58.3764C1321.83 57.3001 1322.72 56.4582 1323.85 55.8507C1324.99 55.2431 1326.29 54.9393 1327.75 54.9393C1329.12 54.9393 1330.32 55.2171 1331.35 55.7725C1332.39 56.328 1333.17 57.1265 1333.69 58.1681L1331.19 59.6262C1330.79 58.9839 1330.29 58.5066 1329.68 58.1941C1329.09 57.8643 1328.44 57.6994 1327.73 57.6994C1326.51 57.6994 1325.5 58.0986 1324.71 58.8971C1323.91 59.6783 1323.51 60.7285 1323.51 62.0478C1323.51 63.367 1323.9 64.4259 1324.68 65.2244C1325.48 66.0056 1326.49 66.3962 1327.73 66.3962C1328.44 66.3962 1329.09 66.2399 1329.68 65.9275C1330.29 65.5977 1330.79 65.1116 1331.19 64.4693L1333.69 65.9275C1333.15 66.969 1332.36 67.7762 1331.32 68.349C1330.3 68.9045 1329.11 69.1823 1327.75 69.1823ZM1342.05 63.0372L1339.63 65.3286V69H1336.38V49.6796H1339.63V61.3447L1346.37 55.0955H1350.28L1344.47 60.9281L1350.83 69H1346.87L1342.05 63.0372ZM1360.44 50.7732H1368.41C1370.35 50.7732 1372.08 51.1551 1373.59 51.9189C1375.1 52.6653 1376.27 53.7329 1377.1 55.1216C1377.94 56.4929 1378.35 58.0813 1378.35 59.8866C1378.35 61.6919 1377.94 63.2889 1377.1 64.6776C1376.27 66.049 1375.1 67.1166 1373.59 67.8804C1372.08 68.6268 1370.35 69 1368.41 69H1360.44V50.7732ZM1368.25 66.1358C1369.59 66.1358 1370.76 65.8841 1371.76 65.3807C1372.79 64.8599 1373.57 64.1308 1374.11 63.1935C1374.66 62.2387 1374.94 61.1364 1374.94 59.8866C1374.94 58.6368 1374.66 57.5431 1374.11 56.6058C1373.57 55.651 1372.79 54.922 1371.76 54.4185C1370.76 53.8978 1369.59 53.6374 1368.25 53.6374H1363.82V66.1358H1368.25ZM1394.71 62.1259C1394.71 62.3516 1394.69 62.6727 1394.66 63.0893H1383.75C1383.94 64.1135 1384.43 64.9293 1385.23 65.5369C1386.05 66.1271 1387.05 66.4222 1388.25 66.4222C1389.78 66.4222 1391.04 65.9188 1392.03 64.912L1393.77 66.9169C1393.15 67.6634 1392.36 68.2275 1391.4 68.6094C1390.45 68.9913 1389.37 69.1823 1388.17 69.1823C1386.65 69.1823 1385.3 68.8785 1384.14 68.2709C1382.97 67.6634 1382.07 66.8215 1381.43 65.7452C1380.8 64.6516 1380.49 63.4191 1380.49 62.0478C1380.49 60.6938 1380.8 59.4787 1381.4 58.4024C1382.03 57.3088 1382.89 56.4582 1383.98 55.8507C1385.07 55.2431 1386.31 54.9393 1387.68 54.9393C1389.03 54.9393 1390.24 55.2431 1391.3 55.8507C1392.37 56.4409 1393.21 57.2828 1393.8 58.3764C1394.41 59.4526 1394.71 60.7025 1394.71 62.1259ZM1387.68 57.5431C1386.64 57.5431 1385.75 57.8556 1385.02 58.4805C1384.31 59.0881 1383.88 59.904 1383.72 60.9281H1391.61C1391.47 59.9213 1391.05 59.1054 1390.33 58.4805C1389.62 57.8556 1388.74 57.5431 1387.68 57.5431ZM1410.6 55.0955L1404.64 69H1401.28L1395.32 55.0955H1398.7L1403.02 65.4067L1407.48 55.0955H1410.6ZM1425.32 62.1259C1425.32 62.3516 1425.31 62.6727 1425.27 63.0893H1414.36C1414.55 64.1135 1415.05 64.9293 1415.85 65.5369C1416.66 66.1271 1417.67 66.4222 1418.87 66.4222C1420.39 66.4222 1421.65 65.9188 1422.64 64.912L1424.39 66.9169C1423.76 67.6634 1422.97 68.2275 1422.02 68.6094C1421.06 68.9913 1419.99 69.1823 1418.79 69.1823C1417.26 69.1823 1415.92 68.8785 1414.75 68.2709C1413.59 67.6634 1412.69 66.8215 1412.04 65.7452C1411.42 64.6516 1411.11 63.4191 1411.11 62.0478C1411.11 60.6938 1411.41 59.4787 1412.02 58.4024C1412.64 57.3088 1413.5 56.4582 1414.6 55.8507C1415.69 55.2431 1416.92 54.9393 1418.29 54.9393C1419.65 54.9393 1420.85 55.2431 1421.91 55.8507C1422.99 56.4409 1423.82 57.2828 1424.41 58.3764C1425.02 59.4526 1425.32 60.7025 1425.32 62.1259ZM1418.29 57.5431C1417.25 57.5431 1416.37 57.8556 1415.64 58.4805C1414.93 59.0881 1414.49 59.904 1414.34 60.9281H1422.23C1422.09 59.9213 1421.66 59.1054 1420.95 58.4805C1420.24 57.8556 1419.35 57.5431 1418.29 57.5431ZM1428.45 49.6796H1431.71V69H1428.45V49.6796ZM1442.23 69.1823C1440.82 69.1823 1439.55 68.8785 1438.43 68.2709C1437.3 67.6634 1436.41 66.8215 1435.77 65.7452C1435.14 64.6516 1434.83 63.4191 1434.83 62.0478C1434.83 60.6764 1435.14 59.4526 1435.77 58.3764C1436.41 57.3001 1437.3 56.4582 1438.43 55.8507C1439.55 55.2431 1440.82 54.9393 1442.23 54.9393C1443.65 54.9393 1444.93 55.2431 1446.05 55.8507C1447.18 56.4582 1448.06 57.3001 1448.68 58.3764C1449.33 59.4526 1449.65 60.6764 1449.65 62.0478C1449.65 63.4191 1449.33 64.6516 1448.68 65.7452C1448.06 66.8215 1447.18 67.6634 1446.05 68.2709C1444.93 68.8785 1443.65 69.1823 1442.23 69.1823ZM1442.23 66.3962C1443.42 66.3962 1444.41 65.9969 1445.19 65.1984C1445.98 64.3999 1446.37 63.3497 1446.37 62.0478C1446.37 60.7459 1445.98 59.6956 1445.19 58.8971C1444.41 58.0986 1443.42 57.6994 1442.23 57.6994C1441.03 57.6994 1440.04 58.0986 1439.26 58.8971C1438.49 59.6956 1438.11 60.7459 1438.11 62.0478C1438.11 63.3497 1438.49 64.3999 1439.26 65.1984C1440.04 65.9969 1441.03 66.3962 1442.23 66.3962ZM1460.47 54.9393C1461.82 54.9393 1463.03 55.2344 1464.09 55.8246C1465.16 56.4148 1466 57.248 1466.61 58.3243C1467.22 59.4005 1467.52 60.6417 1467.52 62.0478C1467.52 63.4538 1467.22 64.7037 1466.61 65.7973C1466 66.8735 1465.16 67.7068 1464.09 68.297C1463.03 68.8872 1461.82 69.1823 1460.47 69.1823C1458.59 69.1823 1457.11 68.5573 1456.01 67.3075V74.0514H1452.76V55.0955H1455.86V56.9182C1456.4 56.2586 1457.06 55.7639 1457.84 55.434C1458.64 55.1042 1459.51 54.9393 1460.47 54.9393ZM1460.1 66.3962C1461.3 66.3962 1462.28 65.9969 1463.05 65.1984C1463.83 64.3999 1464.22 63.3497 1464.22 62.0478C1464.22 60.7459 1463.83 59.6956 1463.05 58.8971C1462.28 58.0986 1461.3 57.6994 1460.1 57.6994C1459.32 57.6994 1458.62 57.8816 1457.99 58.2462C1457.37 58.5934 1456.87 59.0968 1456.51 59.7564C1456.14 60.416 1455.96 61.1798 1455.96 62.0478C1455.96 62.9157 1456.14 63.6795 1456.51 64.3391C1456.87 64.9988 1457.37 65.5109 1457.99 65.8754C1458.62 66.2226 1459.32 66.3962 1460.1 66.3962ZM1483.68 62.1259C1483.68 62.3516 1483.66 62.6727 1483.63 63.0893H1472.72C1472.91 64.1135 1473.41 64.9293 1474.2 65.5369C1475.02 66.1271 1476.03 66.4222 1477.22 66.4222C1478.75 66.4222 1480.01 65.9188 1481 64.912L1482.74 66.9169C1482.12 67.6634 1481.33 68.2275 1480.37 68.6094C1479.42 68.9913 1478.34 69.1823 1477.15 69.1823C1475.62 69.1823 1474.27 68.8785 1473.11 68.2709C1471.95 67.6634 1471.04 66.8215 1470.4 65.7452C1469.78 64.6516 1469.46 63.4191 1469.46 62.0478C1469.46 60.6938 1469.77 59.4787 1470.38 58.4024C1471 57.3088 1471.86 56.4582 1472.95 55.8507C1474.05 55.2431 1475.28 54.9393 1476.65 54.9393C1478.01 54.9393 1479.21 55.2431 1480.27 55.8507C1481.35 56.4409 1482.18 57.2828 1482.77 58.3764C1483.38 59.4526 1483.68 60.7025 1483.68 62.1259ZM1476.65 57.5431C1475.61 57.5431 1474.72 57.8556 1474 58.4805C1473.28 59.0881 1472.85 59.904 1472.69 60.9281H1480.58C1480.44 59.9213 1480.02 59.1054 1479.31 58.4805C1478.6 57.8556 1477.71 57.5431 1476.65 57.5431ZM1489.91 57.1265C1490.84 55.6684 1492.49 54.9393 1494.85 54.9393V58.0379C1494.58 57.9858 1494.32 57.9598 1494.1 57.9598C1492.83 57.9598 1491.84 58.333 1491.13 59.0794C1490.42 59.8085 1490.06 60.8674 1490.06 62.2561V69H1486.81V55.0955H1489.91V57.1265Z" fill="white"/>
</svg>
