<svg width="33" height="32" viewBox="0 0 33 32" fill="none" xmlns="http://www.w3.org/2000/svg">
<g id="Btn - twitter">
<path id="&#239;&#130;&#153;" d="M26.0156 11.125C26.9531 10.4219 27.7969 9.57812 28.4531 8.59375C27.6094 8.96875 26.625 9.25 25.6406 9.34375C26.6719 8.73438 27.4219 7.79688 27.7969 6.625C26.8594 7.1875 25.7812 7.60938 24.7031 7.84375C23.7656 6.85938 22.5 6.29688 21.0938 6.29688C18.375 6.29688 16.1719 8.5 16.1719 11.2188C16.1719 11.5938 16.2188 11.9688 16.3125 12.3438C12.2344 12.1094 8.57812 10.1406 6.14062 7.1875C5.71875 7.89062 5.48438 8.73438 5.48438 9.67188C5.48438 11.3594 6.32812 12.8594 7.6875 13.75C6.89062 13.7031 6.09375 13.5156 5.4375 13.1406V13.1875C5.4375 15.5781 7.125 17.5469 9.375 18.0156C9 18.1094 8.53125 18.2031 8.10938 18.2031C7.78125 18.2031 7.5 18.1562 7.17188 18.1094C7.78125 20.0781 9.60938 21.4844 11.7656 21.5312C10.0781 22.8438 7.96875 23.6406 5.67188 23.6406C5.25 23.6406 4.875 23.5938 4.5 23.5469C6.65625 24.9531 9.23438 25.75 12.0469 25.75C21.0938 25.75 26.0156 18.2969 26.0156 11.7812C26.0156 11.5469 26.0156 11.3594 26.0156 11.125Z" fill="#D0D0D0"/>
</g>
</svg>
